<?xml version="1.0" encoding="UTF-8"?>
<svg width="38px" height="26px" viewBox="0 0 38 26" version="1.1" xmlns="http://www.w3.org/2000/svg" xmlns:xlink="http://www.w3.org/1999/xlink">
    <!-- Generator: Sketch 54.1 (76490) - https://sketchapp.com -->
    <title>icon 内含操作</title>
    <desc>Created with Sketch.</desc>
    <g id="页面2" stroke="none" stroke-width="1" fill="none" fill-rule="evenodd">
        <g id="代币分配复制-13" transform="translate(-214.000000, -865.000000)">
            <g id="编组-19复制" transform="translate(174.000000, 198.000000)">
                <g id="编组-10">
                    <g id="icon-内含操作" transform="translate(40.000000, 667.000000)">
                        <rect id="矩形" fill="#396EA0" x="0" y="0" width="38" height="26" rx="2"></rect>
                        <path d="M21.2282683,5.9166161 C19.3221841,4.02090298 16.4654608,3.47431609 14.0008582,4.53377041 L17.1504724,7.70279182 C17.7851673,8.34139765 17.7851673,9.38333348 17.1504724,10.0291416 L15.966981,11.2175247 C15.3267111,11.857813 14.2927616,11.857813 13.6524917,11.2175247 L10.5052636,8.04850326 C9.48018854,10.5239642 10.043967,13.3773005 11.9321343,15.2700308 C13.8102053,17.1799093 16.6629752,17.7295505 19.109437,16.6528766 L24.0271301,21.519245 C24.6642111,22.1602517 25.69738,22.1602517 26.3416193,21.519245 L27.5227246,20.330862 C28.1590918,19.6866469 28.1590918,18.6463265 27.5227246,18.0021114 L22.6050315,13.1381437 C23.6567067,10.6749301 23.1114048,7.81561239 21.2282683,5.91901688 L21.2282683,5.9166161 Z" id="路径" fill="#FFFFFF" fill-rule="nonzero"></path>
                    </g>
                </g>
            </g>
        </g>
    </g>
</svg>