<?xml version="1.0" encoding="UTF-8"?>
<svg width="38px" height="26px" viewBox="0 0 38 26" version="1.1" xmlns="http://www.w3.org/2000/svg" xmlns:xlink="http://www.w3.org/1999/xlink">
    <!-- Generator: Sketch 54.1 (76490) - https://sketchapp.com -->
    <title>icon交易哈希</title>
    <desc>Created with Sketch.</desc>
    <g id="页面2" stroke="none" stroke-width="1" fill="none" fill-rule="evenodd">
        <g id="代币分配复制-13" transform="translate(-214.000000, -236.000000)">
            <g id="编组-19复制" transform="translate(174.000000, 198.000000)">
                <g id="编组-10">
                    <g id="编组-9">
                        <g id="icon交易哈希" transform="translate(40.000000, 38.000000)">
                            <rect id="矩形" fill="#396EA0" x="0" y="0" width="38" height="26" rx="2"></rect>
                            <path d="M26.8082408,12.0034859 C26.5047328,11.3820866 25.8788005,10.9897861 25.1945917,10.9921379 L16.0699594,10.9921379 L16.0699594,8.25197634 C16.0699594,6.6151865 17.3841336,5.28346797 18.9993601,5.28346797 C20.6145865,5.28346797 21.9287607,6.6151865 21.9287607,8.25197634 C21.9287607,8.88253861 22.4331981,9.39371033 23.0554533,9.39371033 C23.6777084,9.39371033 24.1821458,8.88253861 24.1821458,8.25197634 C24.1821458,5.3513899 21.8617336,3 18.9993601,3 C16.1369865,3 13.8165743,5.3513899 13.8165743,8.25197634 L13.8165743,10.9921379 L12.8041284,10.9921379 C12.1204799,10.9920292 11.4955194,11.3835688 11.1900689,12.0033508 C10.8846184,12.6231329 10.951175,13.3646368 11.3619619,13.9184021 L17.5571936,22.2704146 C17.8964178,22.7317494 18.4316225,23.0025005 18.9993601,22.9999826 C19.5670976,23.0025005 20.1023023,22.7317494 20.4415265,22.2704146 L26.6363075,13.9184021 C27.0493756,13.3655837 27.11607,12.6227708 26.8082408,12.0034859 L26.8082408,12.0034859 Z M18.9993601,20.4128134 L13.7039051,13.2756059 L24.2948151,13.2756059 L18.9993601,20.4128134 Z" id="形状" fill="#FFFFFF" fill-rule="nonzero"></path>
                        </g>
                    </g>
                </g>
            </g>
        </g>
    </g>
</svg>