<?xml version="1.0" encoding="UTF-8"?>
<svg width="244px" height="229px" viewBox="0 0 244 229" version="1.1" xmlns="http://www.w3.org/2000/svg" xmlns:xlink="http://www.w3.org/1999/xlink">
    <!-- Generator: Sketch 54.1 (76490) - https://sketchapp.com -->
    <title>编组 26</title>
    <desc>Created with Sketch.</desc>
    <defs>
        <linearGradient x1="50%" y1="0%" x2="50%" y2="93.3331159%" id="linearGradient-1">
            <stop stop-color="#C8C8C8" offset="0%"></stop>
            <stop stop-color="#F0EEEE" offset="100%"></stop>
        </linearGradient>
        <path d="M231.895336,154.896237 L213.647071,138.980554 C213.641353,138.975566 213.635626,138.970588 213.629891,138.96562 C210.737334,136.459485 206.36083,136.772743 203.854695,139.6653 L203.846236,139.675064 C201.334116,142.574529 201.640761,146.959774 204.531958,149.481405 L226.16171,168.346337 C226.167429,168.351325 226.173156,168.356303 226.178891,168.361272 C226.306211,168.471583 226.436407,168.576432 226.569191,168.675839 C231.538671,173.71886 231.86689,181.814618 227.154596,187.253504 L227.13795,187.272717 C222.206524,192.964523 213.594693,193.580934 207.902887,188.649508 C207.891602,188.639731 207.880333,188.629935 207.869081,188.620121 L195.230398,177.596976 C177.166268,194.290082 153.044611,204.484898 126.549713,204.484898 C70.5449996,204.484898 25.1442087,158.933252 25.1442087,102.742449 C25.1442087,99.9112295 25.2594691,97.1070196 25.4855388,94.3342856 L5.682336,77.0624241 C-0.00679419004,72.1005061 -0.610191545,63.4714749 4.33301123,57.7660758 L4.3496574,57.7468629 C9.28108309,52.0550568 17.892914,51.4386467 23.5847201,56.3700724 C23.596005,56.3798497 23.6072737,56.3896454 23.6185263,56.3994597 L32.6441257,64.2713633 C32.6496525,64.2577971 32.655182,64.2442323 32.6607144,64.2306691 L41.1626301,71.6458286 C41.1716691,71.6537122 41.180721,71.661581 41.1897859,71.6694348 C45.7618924,75.630744 52.6795927,75.1355949 56.6409019,70.5634883 C60.6190633,65.9719311 60.1334647,59.0275105 55.5550003,55.0342876 L43.4244542,44.4543266 C43.4323258,44.4430471 43.4401997,44.4317692 43.4480757,44.420493 L34.9829371,37.0374094 C31.058539,33.6146469 30.6423117,27.6622864 34.0521643,23.7266659 C37.0846186,20.2266351 42.1383213,19.5139704 45.9758558,21.8203967 L69.4767087,42.3172567 C69.4833496,42.3230488 69.49,42.3288299 69.4966599,42.3346001 C72.8557586,45.2449497 77.9381506,44.8811666 80.8485002,41.522068 C83.7712311,38.1486789 83.4144648,33.0466557 80.050695,30.1128592 L68.037715,19.6354365 C68.0543626,19.6236161 68.071014,19.6118006 68.087669,19.59999 L57.6206059,10.4210769 C55.1575162,8.26111225 54.902685,4.51686979 57.0504049,2.04309587 C59.1844038,-0.414874049 62.9069301,-0.677504418 65.3649,1.45649453 C65.3722591,1.4628836 65.3796022,1.46929092 65.3869295,1.47571642 L78.6054221,13.0674489 C92.8811681,5.36805229 109.207023,1 126.549713,1 C182.554427,1 227.955218,46.5516461 227.955218,102.742449 C227.955218,110.96645 226.982696,118.962551 225.146746,126.621298 L241.656016,141.020274 C245.206662,144.117059 245.583249,149.502528 242.498144,153.063327 C239.803034,156.173999 235.343309,156.85121 231.895336,154.896237 Z" id="path-2"></path>
    </defs>
    <g id="页面2" stroke="none" stroke-width="1" fill="none" fill-rule="evenodd">
        <g id="代币分配复制-17" transform="translate(-838.000000, -430.000000)">
            <g id="编组-26" transform="translate(837.000000, 430.000000)">
                <g id="编组-24" transform="translate(0.000000, 24.154866)">
                    <mask id="mask-3" fill="white">
                        <use xlink:href="#path-2"></use>
                    </mask>
                    <use id="蒙版" fill="url(#linearGradient-1)" xlink:href="#path-2"></use>
                    <g mask="url(#mask-3)">
                        <g transform="translate(79.316686, 68.700061)">
                            <path d="M5.74726377,0 L85.4992815,0 L102.441254,17.0301519 L102.441254,141.957415 C102.441254,145.131541 99.8681159,147.704679 96.6939898,147.704679 L5.74726377,147.704679 C2.57313763,147.704679 2.16507518e-15,145.131541 1.77635684e-15,141.957415 L0,5.74726377 C-3.88718341e-16,2.57313763 2.57313763,3.24761277e-15 5.74726377,2.66453526e-15 Z" id="矩形" stroke="none" fill="#FFFFFF" fill-rule="evenodd"></path>
                            <polyline id="路径-49" stroke="#CBCBCB" stroke-width="2.87363188" fill="none" points="83.291353 2.09280431 83.291353 18.2857581 101.052261 18.2857581"></polyline>
                            <path d="M11.2067901,48.651344 L83.291353,48.651344" id="直线-6" stroke="#CBCBCB" stroke-width="3.59355229" fill="none" opacity="0.697381882" stroke-linecap="square"></path>
                            <path d="M11.2067901,64.8223293 L51.2206268,64.8223293" id="直线-6复制" stroke="#CBCBCB" stroke-width="3.59355229" fill="none" opacity="0.697381882" stroke-linecap="square"></path>
                            <path d="M11.2067901,80.9933146 L76.1833142,80.9933146" id="直线-6复制-2" stroke="#CBCBCB" stroke-width="3.59355229" fill="none" opacity="0.697381882" stroke-linecap="square"></path>
                            <path d="M11.2067901,97.1642999 L65.1833142,97.1642999" id="直线-6复制-3" stroke="#CBCBCB" stroke-width="3.59355229" fill="none" opacity="0.697381882" stroke-linecap="square"></path>
                        </g>
                    </g>
                </g>
                <ellipse id="椭圆形" stroke="#FFFFFF" stroke-width="3.14435825" cx="60.0653096" cy="111.400121" rx="4.47706422" ry="4.49194036"></ellipse>
                <ellipse id="椭圆形复制-9" stroke="#FFFFFF" stroke-width="3.14435825" cx="156.769897" cy="8.08549266" rx="4.47706422" ry="4.49194036"></ellipse>
                <ellipse id="椭圆形复制-8" stroke="#FFFFFF" stroke-width="3.14435825" cx="210.494667" cy="141.496121" rx="4.47706422" ry="4.49194036"></ellipse>
                <ellipse id="椭圆形复制-7" stroke="#FFFFFF" stroke-width="4.49194036" cx="123.639622" cy="57.9460307" rx="6.71559633" ry="6.73791055"></ellipse>
                <g id="编组-25" transform="translate(179.602924, 64.683941)" fill="#FFFFFF">
                    <rect id="矩形" x="3.58165138" y="0" width="2.23853211" height="8.98388073" rx="1.11926606"></rect>
                    <path d="M4.47706422,0.239473162 L4.47706422,0.239473162 C5.09727176,0.239473162 5.60004931,0.742250713 5.60004931,1.36245825 L5.60004931,8.07061651 C5.60004931,8.69082405 5.09727176,9.1936016 4.47706422,9.1936016 L4.47706422,9.1936016 C3.85685668,9.1936016 3.35407913,8.69082405 3.35407913,8.07061651 L3.35407913,1.36245825 C3.35407913,0.742250713 3.85685668,0.239473162 4.47706422,0.239473162 Z" id="矩形" transform="translate(4.477064, 4.716537) rotate(-90.000000) translate(-4.477064, -4.716537) "></path>
                    <path d="M4.92477064,0.239473162 L4.92477064,0.239473162 C5.54497818,0.239473162 6.04775573,0.742250713 6.04775573,1.36245825 L6.04775573,8.07061651 C6.04775573,8.69082405 5.54497818,9.1936016 4.92477064,9.1936016 L4.92477064,9.1936016 C4.3045631,9.1936016 3.80178555,8.69082405 3.80178555,8.07061651 L3.80178555,1.36245825 C3.80178555,0.742250713 4.3045631,0.239473162 4.92477064,0.239473162 Z" id="矩形复制-26" transform="translate(4.924771, 4.716537) rotate(-90.000000) translate(-4.924771, -4.716537) "></path>
                </g>
                <g id="编组-25复制-3" transform="translate(104.835952, 0.000000)" fill="#FFFFFF">
                    <rect id="矩形" x="3.13394495" y="0" width="1.79082569" height="8.08549266" rx="0.895412844"></rect>
                    <path d="M4.0293578,0.0133885296 L4.0293578,0.0133885296 C4.52552383,0.0133885296 4.92774587,0.41561057 4.92774587,0.911776602 L4.92774587,7.17371605 C4.92774587,7.66988209 4.52552383,8.07210413 4.0293578,8.07210413 L4.0293578,8.07210413 C3.53319177,8.07210413 3.13096973,7.66988209 3.13096973,7.17371605 L3.13096973,0.911776602 C3.13096973,0.41561057 3.53319177,0.0133885296 4.0293578,0.0133885296 Z" id="矩形" transform="translate(4.029358, 4.042746) rotate(-90.000000) translate(-4.029358, -4.042746) "></path>
                </g>
                <g id="编组-25复制-2" transform="translate(193.929530, 20.213732)" fill="#FFFFFF">
                    <rect id="矩形" x="3.58165138" y="0" width="2.68623853" height="9.8822688" rx="1.34311927"></rect>
                    <path d="M4.92477064,0.0163637584 L4.92477064,0.0163637584 C5.66901969,0.0163637584 6.27235275,0.61969682 6.27235275,1.36394587 L6.27235275,8.51832293 C6.27235275,9.26257198 5.66901969,9.86590504 4.92477064,9.86590504 L4.92477064,9.86590504 C4.18052159,9.86590504 3.57718853,9.26257198 3.57718853,8.51832293 L3.57718853,1.36394587 C3.57718853,0.61969682 4.18052159,0.0163637584 4.92477064,0.0163637584 Z" id="矩形" transform="translate(4.924771, 4.941134) rotate(-90.000000) translate(-4.924771, -4.941134) "></path>
                </g>
                <g id="编组-25复制" transform="translate(47.081823, 144.640480)" fill="#FFFFFF">
                    <rect id="矩形" x="3.13394495" y="0" width="2.23853211" height="8.53468669" rx="1.11926606"></rect>
                    <path d="M4.25321101,0.0141323368 L4.25321101,0.0141323368 C4.87341855,0.0141323368 5.3761961,0.516909888 5.3761961,1.13711743 L5.3761961,7.39756926 C5.3761961,8.0177768 4.87341855,8.52055436 4.25321101,8.52055436 L4.25321101,8.52055436 C3.63300347,8.52055436 3.13022592,8.0177768 3.13022592,7.39756926 L3.13022592,1.13711743 C3.13022592,0.516909888 3.63300347,0.0141323368 4.25321101,0.0141323368 Z" id="矩形" transform="translate(4.253211, 4.267343) rotate(-90.000000) translate(-4.253211, -4.267343) "></path>
                </g>
            </g>
        </g>
    </g>
</svg>