<?xml version="1.0" encoding="UTF-8"?>
<svg width="24px" height="25px" viewBox="0 0 24 25" version="1.1" xmlns="http://www.w3.org/2000/svg" xmlns:xlink="http://www.w3.org/1999/xlink">
    <!-- Generator: Sketch 54.1 (76490) - https://sketchapp.com -->
    <title>sous</title>
    <desc>Created with Sketch.</desc>
    <g id="页面2" stroke="none" stroke-width="1" fill="none" fill-rule="evenodd">
        <g id="代币分配复制-7" transform="translate(-1327.000000, -274.000000)" fill="#396EA0" fill-rule="nonzero">
            <g id="编组-20" transform="translate(534.000000, 254.000000)">
                <g id="sous" transform="translate(793.000000, 20.000000)">
                    <path d="M17.2946912,19.8343063 C15.4145015,21.1306045 13.1921764,21.8369977 10.9103867,21.8636357 C4.89041147,21.8636357 0.0102572854,16.9714838 0.0102572854,10.9367087 C0.0102572854,4.90193354 4.89041147,0.00978168871 10.9103867,0.00978168871 C16.930362,0.00978168871 21.8105162,4.90193354 21.8105162,10.9367087 C21.8587732,13.7295631 20.793912,16.4263809 18.8519239,18.4295015 L23.9927403,23.5809531 L22.5913807,24.9857579 L17.2956904,19.8343063 L17.2946912,19.8343063 Z M10.9103867,19.9905626 C13.2647142,19.9916261 15.5229192,19.0545449 17.1876803,17.385691 C18.8524413,15.7168372 19.7872245,13.4530805 19.7861636,11.092965 C19.7861636,6.17895756 15.8123429,2.19536742 10.9103867,2.19536742 C6.00843053,2.19536742 2.03460987,6.17895756 2.03460987,11.092965 C2.03460987,16.0069725 6.00843053,19.9905626 10.9103867,19.9905626 Z" id="形状"></path>
                </g>
            </g>
        </g>
    </g>
</svg>