<?xml version="1.0" encoding="UTF-8"?>
<svg width="38px" height="26px" viewBox="0 0 38 26" version="1.1" xmlns="http://www.w3.org/2000/svg" xmlns:xlink="http://www.w3.org/1999/xlink">
    <!-- Generator: Sketch 54.1 (76490) - https://sketchapp.com -->
    <title>icon 账户</title>
    <desc>Created with Sketch.</desc>
    <g id="页面2" stroke="none" stroke-width="1" fill="none" fill-rule="evenodd">
        <g id="代币分配复制-14" transform="translate(-214.000000, -236.000000)">
            <g id="编组-9" transform="translate(174.000000, 198.000000)">
                <g id="账户" transform="translate(40.000000, 38.000000)">
                    <g id="icon-账户">
                        <rect id="矩形复制-8" fill="#396EA0" x="0" y="0" width="38" height="26" rx="2"></rect>
                        <g id="账户" transform="translate(4.000000, 4.000000)" fill="#FFFFFF" fill-rule="nonzero">
                            <path d="M5.53466333,1.03949387 C5.0824082,1.03949387 4.65964796,1.12423314 4.25655099,1.29371164 C3.85345403,1.46319018 3.49951523,1.69746931 3.18981878,1.99654908 C2.88012233,2.29562884 2.63924733,2.65950921 2.46227793,3.07822086 C2.28530853,3.4969325 2.19682383,3.9505368 2.19682383,4.42906441 C2.19682383,4.90759203 2.28530853,5.35122698 2.46227793,5.75996931 C2.63924733,6.16871164 2.88503817,6.52760734 3.18981878,6.84164109 C3.49951523,7.15567483 3.85345403,7.39992328 4.25655099,7.57937117 C4.65964796,7.75881902 5.08732401,7.84854295 5.53466333,7.84854295 C6.0311608,7.84854295 6.48833174,7.75881902 6.90126036,7.57937117 C7.31418895,7.39992331 7.67304356,7.15069017 7.96799257,6.84164109 C8.26294158,6.52760734 8.49890077,6.16871164 8.68078598,5.75996931 C8.85775538,5.35122698 8.94624008,4.907592 8.94624008,4.42906441 C8.94624008,3.44210122 8.62671201,2.63458588 7.98765583,1.99654908 C7.34368386,1.35851227 6.52765828,1.03949387 5.53466333,1.03949387 L5.53466333,1.03949387 Z M11.1091994,13.5011503 C11.1091994,13.0425613 11.0207147,12.6088957 10.8437453,12.1851994 C10.6667759,11.7664877 10.4308167,11.4026074 10.1309519,11.1035276 C9.83600287,10.8044478 9.48206407,10.565184 9.06421967,10.3807515 C8.65129108,10.2013037 8.2186992,10.1115797 7.76644408,10.1115797 L3.32746164,10.1115797 C2.40328811,10.1115797 1.62167328,10.4405675 0.982617127,11.1035276 C0.343560974,11.7615031 0.0240328691,12.5640337 0.0240328691,13.5011503 L0.0240328691,16.8857362 L11.1091994,16.8857362 L11.1091994,13.5011503 Z M27.5919326,17.0701687 C28.063851,17.0701687 28.412874,16.9505368 28.6390015,16.711273 C28.8651291,16.4720092 28.9781929,16.1828987 28.9781929,15.8489264 C28.9781929,15.514954 28.8454658,15.2208589 28.5898434,14.9666411 C28.3293051,14.7124233 27.9606188,14.5878068 27.4887005,14.5878067 L16.9000314,14.5878067 C16.428113,14.5878067 16.0692584,14.7124233 15.8332992,14.9666411 C15.59734,15.2208589 15.4793604,15.514954 15.4793604,15.8489264 C15.4793604,16.1828987 15.59734,16.4720092 15.8332992,16.711273 C16.0692584,16.9505368 16.4133656,17.0701687 16.8656207,17.0701687 L27.5919326,17.0701687 Z M27.6312591,12.4194785 C28.1031775,12.4194785 28.4472847,12.2998466 28.6635806,12.0605828 C28.8749607,11.821319 28.9831087,11.5322086 28.9831087,11.1982362 C28.9831087,10.8393405 28.8847924,10.5402607 28.6832439,10.2960123 C28.4816954,10.0567485 28.1425041,9.93711656 27.6705857,9.93711656 L16.7918834,9.93711656 C16.319965,9.93711656 15.9758579,10.0567485 15.7595619,10.2960123 C15.5481818,10.5352761 15.4400339,10.8343558 15.4400339,11.1982362 C15.4400339,11.5322086 15.5383502,11.821319 15.7398987,12.0605828 C15.9414472,12.2998466 16.2806385,12.4194785 16.7525569,12.4194785 L27.6312591,12.4194785 L27.6312591,12.4194785 Z M27.6656699,7.84854295 C28.0196087,7.84854295 28.3293051,7.72891103 28.5898434,7.48964724 C28.8503816,7.25038344 28.9831087,6.961273 28.9831087,6.62730062 C28.9831087,6.29332824 28.8503816,6.0191718 28.5898434,5.81480062 C28.3293051,5.61042944 28.0196086,5.51073619 27.6656699,5.51073619 L20.4541668,5.51073619 C20.100228,5.51073619 19.7954474,5.6154141 19.5496566,5.81480062 C19.2989499,6.0191718 19.1760545,6.28834358 19.1760545,6.62730062 C19.1760545,6.961273 19.2989499,7.25038344 19.5496566,7.48964724 C19.8003632,7.72891103 20.100228,7.84854295 20.4541668,7.84854295 L27.6656699,7.84854295 L27.6656699,7.84854295 Z" id="形状"></path>
                        </g>
                    </g>
                </g>
            </g>
        </g>
    </g>
</svg>