<?xml version="1.0" encoding="UTF-8"?>
<svg width="46px" height="46px" viewBox="0 0 46 46" version="1.1" xmlns="http://www.w3.org/2000/svg" xmlns:xlink="http://www.w3.org/1999/xlink">
    <!-- Generator: Sketch 54.1 (76490) - https://sketchapp.com -->
    <title>关闭按钮 (2)</title>
    <desc>Created with Sketch.</desc>
    <g id="页面2" stroke="none" stroke-width="1" fill="none" fill-rule="evenodd">
        <g id="画板复制-9" transform="translate(-352.000000, -830.000000)" fill="#FFFFFF" fill-rule="nonzero">
            <g id="关闭按钮-(2)" transform="translate(352.000000, 830.000000)">
                <path d="M23,46 C10.2974508,46 1.55561363e-15,35.7025492 0,23 C-1.55561363e-15,10.2974508 10.2974508,2.33342044e-15 23,0 C35.7025492,-2.33342044e-15 46,10.2974508 46,23 C45.9844656,35.6961091 35.6961091,45.9844656 23,46 Z M23,3.30012904 C15.032011,3.29952886 7.84826775,8.09886779 4.79863448,15.4601575 C1.74900121,22.8214473 3.43407227,31.2949563 9.06807916,36.9293876 C14.7020861,42.5638189 23.1754682,44.2495283 30.5369876,41.2004495 C37.898507,38.1513707 42.6983871,30.9679891 42.6983871,23 C42.6865304,12.1255559 33.8744432,3.31280486 23,3.30012904 Z M25.3148387,23.0704839 L32.4151613,16.0436129 C32.8459727,15.6343167 33.022009,15.0241843 32.8754427,14.4483022 C32.7288764,13.8724201 32.2825844,13.420675 31.7085246,13.267126 C31.1344649,13.1135769 30.5222398,13.2821908 30.1077419,13.708 L22.9925807,20.7422903 L15.9887097,13.7154193 C15.345147,13.0892677 14.3182565,13.0952429 13.6820239,13.7288414 C13.0457914,14.3624399 13.0355559,15.3892967 13.6590322,16.0354516 L20.6554839,23.0519355 L13.6070968,30.026129 C13.2968994,30.3321129 13.1210451,30.7488467 13.1182619,31.1845539 C13.1154787,31.6202611 13.285995,32.0392074 13.5922581,32.349129 C13.8983126,32.6590829 14.3150337,32.8346509 14.750619,32.8371559 C15.1862042,32.8396608 15.604917,32.6688972 15.9145161,32.3624839 L22.9777419,25.3771613 L30.1003226,32.5205161 C30.4057809,32.8300739 30.8228515,33.0038534 31.2577419,33.0027742 C31.9226111,33.0048093 32.5230164,32.6054987 32.778217,31.9915542 C33.0334176,31.3776098 32.8929839,30.6703518 32.4225807,30.2004839 L25.3148387,23.0704839 Z" id="形状"></path>
            </g>
        </g>
    </g>
</svg>