<?xml version="1.0" encoding="UTF-8"?>
<svg width="30px" height="30px" viewBox="0 0 30 30" version="1.1" xmlns="http://www.w3.org/2000/svg" xmlns:xlink="http://www.w3.org/1999/xlink">
    <!-- Generator: Sketch 54.1 (76490) - https://sketchapp.com -->
    <title>关闭按钮 (1)</title>
    <desc>Created with Sketch.</desc>
    <g id="页面2" stroke="none" stroke-width="1" fill="none" fill-rule="evenodd">
        <g id="画板复制-4" transform="translate(-632.000000, -82.000000)" fill="#FFFFFF" fill-rule="nonzero">
            <g id="关闭按钮-(1)" transform="translate(632.000000, 82.000000)">
                <path d="M15,11.4859973 L25.7406065,0.741630728 C26.7145088,-0.214981647 28.2773909,-0.207983079 29.242687,0.757313004 C30.2079831,1.72260909 30.2149816,3.28549116 29.2583693,4.25939353 L18.5140027,15 L29.2583693,25.7406065 C30.2149816,26.7145088 30.2079831,28.2773909 29.242687,29.242687 C28.2773909,30.2079831 26.7145088,30.2149816 25.7406065,29.2583693 L15.0000404,18.5140027 L4.25939353,29.2583693 C3.28549116,30.2149816 1.72260909,30.2079831 0.757313004,29.242687 C-0.207983079,28.2773909 -0.214981647,26.7145088 0.741630728,25.7406065 L11.4859973,15 L0.741630728,4.25939353 C-0.214981647,3.28549116 -0.207983079,1.72260909 0.757313004,0.757313004 C1.72260909,-0.207983079 3.28549116,-0.214981647 4.25939353,0.741630728 L15,11.4859973 Z" id="路径"></path>
            </g>
        </g>
    </g>
</svg>