<?xml version="1.0" encoding="UTF-8"?>
<svg width="28px" height="28px" viewBox="0 0 28 28" version="1.1" xmlns="http://www.w3.org/2000/svg" xmlns:xlink="http://www.w3.org/1999/xlink">
    <!-- Generator: Sketch 54.1 (76490) - https://sketchapp.com -->
    <title>复制 (1)</title>
    <desc>Created with Sketch.</desc>
    <g id="页面2" stroke="none" stroke-width="1" fill="none" fill-rule="evenodd">
        <g id="画板" transform="translate(-336.000000, -338.000000)" fill="#8FB9E1" fill-rule="nonzero">
            <g id="编组-5" transform="translate(40.000000, 300.000000)">
                <g id="复制-(1)" transform="translate(296.000000, 38.000000)">
                    <path d="M25.846875,23.690625 L25.846875,3.23125 C25.846875,2.946875 25.734375,2.671875 25.53125,2.46875 C25.328125,2.265625 25.05625,2.153125 24.771875,2.153125 L4.309375,2.153125 C4.309375,0.9625 5.275,0 6.4625,0 L25.846875,0 C27.0375,0 28,0.965625 28,2.153125 L28,21.5375 C28,22.728125 27.034375,23.690625 25.846875,23.690625 Z M23.690625,6.4625 L23.690625,25.846875 C23.690625,27.0375 22.728125,28 21.5375,28 L2.153125,28 C0.965625,28 0,27.034375 0,25.846875 L0,6.4625 C0,5.271875 0.965625,4.309375 2.153125,4.309375 L21.5375,4.309375 C22.728125,4.309375 23.690625,5.271875 23.690625,6.4625 Z M19.384375,10.76875 L4.309375,10.76875 C3.715625,10.76875 3.234375,11.25 3.234375,11.84375 C3.234375,12.4375 3.715625,12.91875 4.309375,12.91875 L19.384375,12.91875 C19.978125,12.91875 20.459375,12.4375 20.459375,11.84375 C20.459375,11.253125 19.978125,10.76875 19.384375,10.76875 Z M19.384375,17.23125 L4.309375,17.23125 C3.715625,17.23125 3.234375,17.7125 3.234375,18.30625 C3.234375,18.9 3.715625,19.38125 4.309375,19.38125 L19.384375,19.38125 C19.978125,19.38125 20.459375,18.9 20.459375,18.30625 C20.459375,17.7125 19.978125,17.23125 19.384375,17.23125 Z" id="形状"></path>
                </g>
            </g>
        </g>
    </g>
</svg>