<?xml version="1.0" encoding="UTF-8"?>
<svg width="28px" height="28px" viewBox="0 0 28 28" version="1.1" xmlns="http://www.w3.org/2000/svg" xmlns:xlink="http://www.w3.org/1999/xlink">
    <!-- Generator: Sketch 54.1 (76490) - https://sketchapp.com -->
    <title>编组 2</title>
    <desc>Created with Sketch.</desc>
    <g id="页面2" stroke="none" stroke-width="1" fill="none" fill-rule="evenodd">
        <g id="画板" transform="translate(-650.000000, -338.000000)" fill-rule="nonzero">
            <g id="编组-5" transform="translate(40.000000, 300.000000)">
                <g id="返回-(1)复制" transform="translate(586.000000, 52.000000) scale(-1, 1) translate(-586.000000, -52.000000) translate(534.000000, 38.000000)">
                    <g id="编组-2">
                        <path d="M14,0 C6.2,0 0,6.2 0,14 C0,21.8 6.2,28 14,28 C21.8,28 28,21.8 28,14 C28,6.2 21.8,0 14,0 Z" id="形状" fill="#396EA0"></path>
                        <path d="M15.9549141,10.717664 L15.9999783,17.2703543 C16.0038087,17.8265654 15.5007798,18.1792127 15.0944136,17.9050657 L10.3076968,14.6756865 C9.90133064,14.4014053 9.89648624,13.7063091 10.299022,13.424245 L15.0406746,10.1009339 C15.4430977,9.81886977 15.9510836,10.1610503 15.9549141,10.717664 Z" id="路径" fill="#FFFFFF"></path>
                    </g>
                </g>
            </g>
        </g>
    </g>
</svg>