<?xml version="1.0" encoding="UTF-8"?>
<svg width="198px" height="52px" viewBox="0 0 198 52" version="1.1" xmlns="http://www.w3.org/2000/svg" xmlns:xlink="http://www.w3.org/1999/xlink">
    <!-- Generator: Sketch 54.1 (76490) - https://sketchapp.com -->
    <title>编组 3</title>
    <desc>Created with Sketch.</desc>
    <g id="页面2" stroke="none" stroke-width="1" fill="none" fill-rule="evenodd">
        <g id="画板" transform="translate(-261.000000, -329.000000)">
            <g id="编组-3" transform="translate(263.000000, 331.000000)">
                <g id="编组-70" transform="translate(54.000000, 1.000000)" fill="#333333" fill-rule="nonzero">
                    <g id="编组-69">
                        <g id="编组-72">
                            <path d="M3.62,18 L0.476,18 L0.476,1.2 L3.62,1.2 L3.62,18 Z M18.02,18 L15.092,18 L15.092,11.808 C15.092,10.008 14.108,8.64 12.236,8.64 C10.436,8.64 9.212,10.152 9.212,11.952 L9.212,18 L6.308,18 L6.308,6.144 L8.924,6.144 L9.116,7.752 C10.316,6.576 11.516,5.976 13.004,5.976 C15.788,5.976 18.02,8.064 18.02,11.784 L18.02,18 Z M29.9,7.392 L28.268,9.312 C27.428,8.52 26.468,8.256 25.34,8.256 C23.948,8.256 23.18,8.688 23.18,9.432 C23.18,10.2 23.876,10.632 25.388,10.728 C27.62,10.872 30.452,11.376 30.452,14.52 C30.452,16.608 28.748,18.408 25.364,18.408 C23.492,18.408 21.62,18.096 19.892,16.296 L21.332,14.208 C22.172,15.144 24.092,15.84 25.412,15.864 C26.516,15.888 27.548,15.312 27.548,14.448 C27.548,13.632 26.876,13.296 25.196,13.2 C22.964,13.032 20.3,12.216 20.3,9.528 C20.3,6.792 23.132,5.832 25.292,5.832 C27.14,5.832 28.532,6.192 29.9,7.392 Z M35.252,6.12 L35.252,18 L32.324,18 L32.324,6.12 L35.252,6.12 Z M32.06,2.832 C32.06,0.552 35.516,0.552 35.516,2.832 C35.516,5.112 32.06,5.112 32.06,2.832 Z M46.004,6.456 L47.18,4.968 L49.34,6.6 L48.02,8.28 C48.932,9.312 49.268,10.488 49.268,11.784 C49.268,13.248 48.716,15.312 46.772,16.2 C48.74,17.184 49.22,18.6 49.22,20.112 C49.22,23.376 46.724,25.392 43.292,25.392 C39.86,25.392 37.292,23.304 37.292,20.112 L40.196,20.112 C40.196,21.648 41.612,22.656 43.292,22.656 C44.972,22.656 46.292,21.744 46.292,20.112 C46.292,18.48 44.756,17.736 43.292,17.736 C39.596,17.736 37.292,15.48 37.292,11.784 C37.292,8.088 39.98,5.784 43.292,5.784 C44.228,5.784 45.188,5.904 46.004,6.456 Z M43.292,8.448 C41.588,8.448 40.196,9.72 40.196,11.784 C40.196,13.848 41.588,15.072 43.292,15.072 C44.972,15.072 46.364,13.824 46.364,11.784 C46.364,9.744 44.972,8.448 43.292,8.448 Z M51.14,1.2 L54.068,1.2 L54.068,7.776 C55.124,6.408 56.42,6 57.764,6 C61.124,6 62.612,8.28 62.612,11.76 L62.612,18 L59.684,18 L59.684,11.784 C59.684,9.624 58.556,8.712 56.996,8.712 C55.268,8.712 54.068,10.176 54.068,11.952 L54.068,18 L51.14,18 L51.14,1.2 Z M66.284,3.144 L69.212,2.832 L69.212,6.192 L72.476,6.192 L72.476,8.712 L69.188,8.712 L69.188,13.824 C69.188,14.952 69.812,15.504 70.724,15.504 C71.18,15.504 71.708,15.36 72.14,15.144 L72.956,17.64 C72.116,17.976 71.42,18.12 70.532,18.144 C67.964,18.24 66.284,16.776 66.284,13.824 L66.284,8.712 L64.076,8.712 L64.076,6.192 L66.284,6.192 L66.284,3.144 Z M92.372,13.704 L94.532,15.888 C92.804,17.592 90.572,18.384 88.148,18.384 C81.908,18.384 79.268,14.088 79.244,9.72 C79.22,5.328 82.076,0.864 88.148,0.864 C90.428,0.864 92.588,1.728 94.316,3.432 L92.204,5.472 C91.1,4.392 89.612,3.888 88.148,3.888 C84.092,3.888 82.34,6.912 82.364,9.72 C82.388,12.504 83.996,15.408 88.148,15.408 C89.612,15.408 91.268,14.808 92.372,13.704 Z M95.348,1.2 L98.276,1.2 L98.276,7.776 C99.332,6.408 100.628,6 101.972,6 C105.332,6 106.82,8.28 106.82,11.76 L106.82,18 L103.892,18 L103.892,11.784 C103.892,9.624 102.764,8.712 101.204,8.712 C99.476,8.712 98.276,10.176 98.276,11.952 L98.276,18 L95.348,18 L95.348,1.2 Z M118.58,7.8 L118.676,6.168 L121.484,6.168 L121.484,18 L118.724,18 L118.58,16.272 C117.908,17.664 116.06,18.336 114.74,18.36 C111.236,18.384 108.644,16.224 108.644,12.072 C108.644,7.992 111.356,5.856 114.812,5.88 C116.396,5.88 117.908,6.624 118.58,7.8 Z M115.076,8.496 C113.132,8.496 111.572,9.816 111.572,12.072 C111.572,14.328 113.132,15.672 115.076,15.672 C119.684,15.672 119.684,8.496 115.076,8.496 Z M126.884,6.12 L126.884,18 L123.956,18 L123.956,6.12 L126.884,6.12 Z M123.692,2.832 C123.692,0.552 127.148,0.552 127.148,2.832 C127.148,5.112 123.692,5.112 123.692,2.832 Z M141.164,18 L138.236,18 L138.236,11.808 C138.236,10.008 137.252,8.64 135.38,8.64 C133.58,8.64 132.356,10.152 132.356,11.952 L132.356,18 L129.452,18 L129.452,6.144 L132.068,6.144 L132.26,7.752 C133.46,6.576 134.66,5.976 136.148,5.976 C138.932,5.976 141.164,8.064 141.164,11.784 L141.164,18 Z" id="InsightChain"></path>
                            <path d="M4.63,31.546258 C5.95,32.551258 7.195,33.556258 8.335,34.561258 C9.115,33.526258 9.79,32.356258 10.36,31.036258 L11.65,31.726258 C11.02,33.181258 10.285,34.456258 9.445,35.551258 C10.525,36.541258 11.53,37.546258 12.43,38.536258 L11.32,39.646258 C10.51,38.686258 9.565,37.681258 8.485,36.661258 C7.225,38.011258 5.755,39.031258 4.09,39.751258 L3.265,38.461258 C4.84,37.816258 6.22,36.886258 7.39,35.656258 C6.25,34.636258 4.975,33.601258 3.595,32.551258 L4.63,31.546258 Z M1.105,29.161258 L13.135,29.161258 L13.135,30.526258 L2.47,30.526258 L2.47,40.471258 L13.6,40.471258 L13.6,41.836258 L1.105,41.836258 L1.105,29.161258 Z M23.77,37.261258 C23.05,39.601258 21.73,41.326258 19.81,42.451258 L18.94,41.296258 C20.8,40.291258 22,38.686258 22.57,36.481258 L19.69,36.481258 L19.69,35.116258 L22.84,35.116258 C22.93,34.486258 22.975,33.841258 22.975,33.151258 L22.975,32.116258 L20.32,32.116258 L20.32,30.751258 L22.975,30.751258 L22.975,28.606258 L24.355,28.606258 L24.355,30.751258 L27.58,30.751258 L27.58,35.116258 L28.765,35.116258 L28.765,36.481258 L24.73,36.481258 C25.6,38.461258 27.01,40.066258 28.93,41.296258 L27.955,42.451258 C26.065,41.056258 24.67,39.331258 23.77,37.261258 Z M24.355,32.116258 L24.355,32.821258 C24.355,33.631258 24.31,34.396258 24.22,35.116258 L26.2,35.116258 L26.2,32.116258 L24.355,32.116258 Z M15.19,32.461258 L16.72,32.461258 L16.72,28.666258 L18.13,28.666258 L18.13,32.461258 L19.75,32.461258 L19.75,33.841258 L18.13,33.841258 L18.13,38.416258 C18.775,38.176258 19.405,37.906258 20.035,37.621258 L20.035,39.046258 C18.565,39.721258 17.005,40.291258 15.325,40.741258 L14.965,39.301258 C15.565,39.181258 16.15,39.031258 16.72,38.881258 L16.72,33.841258 L15.19,33.841258 L15.19,32.461258 Z M31.3,28.771258 C32.2,29.521258 32.965,30.286258 33.58,31.036258 L32.59,32.026258 C32.05,31.306258 31.285,30.541258 30.31,29.716258 L31.3,28.771258 Z M31.075,32.266258 C31.96,33.016258 32.71,33.751258 33.31,34.486258 L32.32,35.476258 C31.795,34.771258 31.06,34.021258 30.1,33.211258 L31.075,32.266258 Z M32.485,36.541258 L33.745,37.036258 C33.085,38.911258 32.35,40.681258 31.54,42.331258 L30.25,41.776258 C31.12,40.066258 31.855,38.311258 32.485,36.541258 Z M33.88,30.976258 L35.785,30.976258 C35.575,30.211258 35.335,29.506258 35.065,28.846258 L36.505,28.606258 C36.715,29.296258 36.925,30.091258 37.135,30.976258 L38.965,30.976258 L38.965,32.356258 L38.35,32.356258 C38.095,34.216258 37.78,35.791258 37.39,37.081258 C38.08,38.281258 38.665,39.376258 39.13,40.381258 L38.005,41.176258 C37.63,40.366258 37.21,39.541258 36.76,38.686258 C36.055,40.096258 35.08,41.371258 33.85,42.496258 L32.965,41.371258 C34.225,40.231258 35.155,38.986258 35.785,37.606258 C35.845,37.471258 35.89,37.336258 35.935,37.216258 C35.365,36.211258 34.72,35.176258 34.03,34.096258 L35.11,33.406258 C35.59,34.141258 36.04,34.846258 36.46,35.536258 C36.7,34.576258 36.895,33.526258 37.045,32.356258 L33.88,32.356258 L33.88,30.976258 Z M39.655,29.896258 L40.975,29.896258 L40.975,39.196258 L39.655,39.196258 L39.655,29.896258 Z M41.95,42.301258 L39.925,42.301258 L39.61,40.921258 C40.255,40.981258 40.87,41.011258 41.455,41.011258 C41.845,41.011258 42.04,40.801258 42.04,40.411258 L42.04,28.636258 L43.405,28.636258 L43.405,40.771258 C43.405,41.791258 42.91,42.301258 41.95,42.301258 Z M56.11,34.006258 L56.11,39.466258 L54.715,39.466258 L54.715,35.296258 L49.12,35.296258 L49.12,39.481258 L47.71,39.481258 L47.71,34.006258 L56.11,34.006258 Z M51.07,36.136258 L52.465,36.136258 L52.465,37.186258 C52.45,37.411258 52.42,37.636258 52.39,37.846258 L53.65,37.846258 L53.65,40.276258 C53.65,40.681258 53.86,40.891258 54.28,40.891258 L56.53,40.891258 C56.77,40.891258 56.95,40.801258 57.07,40.651258 C57.205,40.471258 57.295,39.916258 57.355,39.016258 L58.66,39.451258 C58.555,40.771258 58.345,41.566258 58.045,41.836258 C57.775,42.076258 57.355,42.196258 56.785,42.196258 L53.86,42.196258 C52.81,42.196258 52.285,41.656258 52.285,40.576258 L52.285,38.356258 C52.045,39.286258 51.58,40.051258 50.905,40.681258 C49.945,41.491258 48.4,42.106258 46.27,42.541258 L45.46,41.281258 C47.59,40.876258 49.045,40.366258 49.825,39.751258 C50.575,39.091258 50.995,38.236258 51.07,37.186258 L51.07,36.136258 Z M49.075,28.606258 L50.485,28.606258 L50.485,33.526258 L49.075,33.526258 L49.075,28.606258 Z M46.135,29.221258 L47.515,29.221258 L47.515,33.061258 L46.135,33.061258 L46.135,29.221258 Z M53.725,30.916258 C53.26,31.771258 52.72,32.491258 52.105,33.061258 L51.04,32.071258 C52.03,31.066258 52.765,29.866258 53.215,28.486258 L54.58,28.846258 L54.31,29.611258 L58.48,29.611258 L58.48,30.916258 L53.725,30.916258 Z M55.075,31.156258 C55.93,31.636258 56.71,32.221258 57.43,32.896258 L56.545,33.901258 C55.825,33.151258 55.03,32.521258 54.19,31.981258 L55.075,31.156258 Z M61.495,29.086258 L66.31,29.086258 L66.31,32.986258 L61.495,32.986258 L61.495,29.086258 Z M65.02,31.801258 L65.02,30.301258 L62.785,30.301258 L62.785,31.801258 L65.02,31.801258 Z M67.705,29.086258 L72.655,29.086258 L72.655,32.986258 L70.87,32.986258 C71.155,33.376258 71.41,33.781258 71.62,34.201258 L73.66,34.201258 L73.66,35.461258 L69.955,35.461258 C70.9,36.211258 72.235,36.796258 73.945,37.246258 L73.375,38.446258 C73.075,38.341258 72.805,38.236258 72.55,38.146258 L72.55,42.451258 L71.29,42.451258 L71.29,41.866258 L68.86,41.866258 L68.86,42.451258 L67.6,42.451258 L67.6,37.546258 L71.185,37.546258 C69.985,36.931258 69.04,36.241258 68.38,35.461258 L65.95,35.461258 C65.2,36.271258 64.24,36.976258 63.07,37.546258 L66.385,37.546258 L66.385,42.451258 L65.125,42.451258 L65.125,41.866258 L62.95,41.866258 L62.95,42.451258 L61.705,42.451258 L61.705,38.116258 C61.375,38.236258 61.045,38.341258 60.715,38.446258 L60.07,37.291258 C61.75,36.811258 63.085,36.196258 64.075,35.461258 L60.34,35.461258 L60.34,34.201258 L65.35,34.201258 C65.605,33.856258 65.815,33.496258 65.965,33.136258 L67.33,33.286258 C67.195,33.601258 67.045,33.901258 66.88,34.201258 L70.225,34.201258 C70.045,33.886258 69.85,33.601258 69.655,33.346258 L70.765,32.986258 L67.705,32.986258 L67.705,29.086258 Z M71.365,31.801258 L71.365,30.301258 L68.995,30.301258 L68.995,31.801258 L71.365,31.801258 Z M62.95,40.651258 L65.125,40.651258 L65.125,38.716258 L62.95,38.716258 L62.95,40.651258 Z M68.86,40.651258 L71.29,40.651258 L71.29,38.716258 L68.86,38.716258 L68.86,40.651258 Z" id="区块浏览器"></path>
                        </g>
                    </g>
                </g>
                <g id="编组">
                    <path d="M47.7778933,23.9073867 C47.7778933,37.0908533 37.0906933,47.7780533 23.9072267,47.7780533 C10.7240267,47.7780533 0.0368266667,37.0908533 0.0368266667,23.9073867 C0.0368266667,10.7241867 10.7240267,0.03672 23.9072267,0.03672 C37.0906933,0.03672 47.7778933,10.7241867 47.7778933,23.9073867 Z" id="Stroke-1" stroke="#333333" stroke-width="3.2736"></path>
                    <path d="M31.6150133,25.4349867 L28.9875467,25.4349867 C28.9638133,25.4349867 28.9419467,25.4216533 28.9310133,25.40032 L26.19848,20.5253867 C26.1747467,20.48272 26.1835467,20.4288533 26.2203467,20.3960533 L26.5470133,20.1037867 C26.5891467,20.0661867 26.65368,20.0688533 26.6926133,20.10992 L31.6611467,25.32752 C31.6998133,25.3677867 31.6710133,25.4349867 31.6150133,25.4349867 M39.5115467,31.72032 L34.4483467,26.1768533 C28.9574133,8.33152 3.72008,13.7808533 3.72008,13.7808533 C-4.83485333,30.9781867 9.52541333,41.4101867 9.52541333,41.4101867 C17.51288,24.4309867 34.1875467,32.17872 36.28168,33.0296533 C37.9235467,33.69712 36.6998133,34.8552533 36.2787467,35.1997867 C36.24728,35.2256533 36.2723467,35.27632 36.3123467,35.2685867 C41.3062133,34.2845867 39.5115467,31.72032 39.5115467,31.72032" id="Fill-3" fill="#333333"></path>
                    <path d="M31.6150133,25.4349867 L28.9875467,25.4349867 C28.9638133,25.4349867 28.9419467,25.4216533 28.9310133,25.40032 L26.19848,20.5253867 C26.1747467,20.48272 26.1835467,20.4288533 26.2203467,20.3960533 L26.5470133,20.1037867 C26.5891467,20.0661867 26.65368,20.0688533 26.6926133,20.10992 L31.6611467,25.32752 C31.6998133,25.3677867 31.6710133,25.4349867 31.6150133,25.4349867 Z M39.5115467,31.72032 L34.4483467,26.1768533 C28.9574133,8.33152 3.72008,13.7808533 3.72008,13.7808533 C-4.83485333,30.9781867 9.52541333,41.4101867 9.52541333,41.4101867 C17.51288,24.4309867 34.1875467,32.17872 36.28168,33.0296533 C37.9235467,33.69712 36.6998133,34.8552533 36.2787467,35.1997867 C36.24728,35.2256533 36.2723467,35.27632 36.3123467,35.2685867 C41.3062133,34.2845867 39.5115467,31.72032 39.5115467,31.72032 Z" id="Stroke-5" stroke="#333333" stroke-width="0.5"></path>
                </g>
            </g>
        </g>
    </g>
</svg>