<?xml version="1.0" encoding="UTF-8"?>
<svg width="199px" height="52px" viewBox="0 0 199 52" version="1.1" xmlns="http://www.w3.org/2000/svg" xmlns:xlink="http://www.w3.org/1999/xlink">
    <!-- Generator: Sketch 54.1 (76490) - https://sketchapp.com -->
    <title>编组 2</title>
    <desc>Created with Sketch.</desc>
    <defs>
        <path d="M4.344,23 L1.2,23 L1.2,6.2 L4.344,6.2 L4.344,23 Z M18.744,23 L15.816,23 L15.816,16.808 C15.816,15.008 14.832,13.64 12.96,13.64 C11.16,13.64 9.936,15.152 9.936,16.952 L9.936,23 L7.032,23 L7.032,11.144 L9.648,11.144 L9.84,12.752 C11.04,11.576 12.24,10.976 13.728,10.976 C16.512,10.976 18.744,13.064 18.744,16.784 L18.744,23 Z M30.624,12.392 L28.992,14.312 C28.152,13.52 27.192,13.256 26.064,13.256 C24.672,13.256 23.904,13.688 23.904,14.432 C23.904,15.2 24.6,15.632 26.112,15.728 C28.344,15.872 31.176,16.376 31.176,19.52 C31.176,21.608 29.472,23.408 26.088,23.408 C24.216,23.408 22.344,23.096 20.616,21.296 L22.056,19.208 C22.896,20.144 24.816,20.84 26.136,20.864 C27.24,20.888 28.272,20.312 28.272,19.448 C28.272,18.632 27.6,18.296 25.92,18.2 C23.688,18.032 21.024,17.216 21.024,14.528 C21.024,11.792 23.856,10.832 26.016,10.832 C27.864,10.832 29.256,11.192 30.624,12.392 Z M35.976,11.12 L35.976,23 L33.048,23 L33.048,11.12 L35.976,11.12 Z M32.784,7.832 C32.784,5.552 36.24,5.552 36.24,7.832 C36.24,10.112 32.784,10.112 32.784,7.832 Z M46.728,11.456 L47.904,9.968 L50.064,11.6 L48.744,13.28 C49.656,14.312 49.992,15.488 49.992,16.784 C49.992,18.248 49.44,20.312 47.496,21.2 C49.464,22.184 49.944,23.6 49.944,25.112 C49.944,28.376 47.448,30.392 44.016,30.392 C40.584,30.392 38.016,28.304 38.016,25.112 L40.92,25.112 C40.92,26.648 42.336,27.656 44.016,27.656 C45.696,27.656 47.016,26.744 47.016,25.112 C47.016,23.48 45.48,22.736 44.016,22.736 C40.32,22.736 38.016,20.48 38.016,16.784 C38.016,13.088 40.704,10.784 44.016,10.784 C44.952,10.784 45.912,10.904 46.728,11.456 Z M44.016,13.448 C42.312,13.448 40.92,14.72 40.92,16.784 C40.92,18.848 42.312,20.072 44.016,20.072 C45.696,20.072 47.088,18.824 47.088,16.784 C47.088,14.744 45.696,13.448 44.016,13.448 Z M52.104,6.2 L55.032,6.2 L55.032,12.776 C56.088,11.408 57.384,11 58.728,11 C62.088,11 63.576,13.28 63.576,16.76 L63.576,23 L60.648,23 L60.648,16.784 C60.648,14.624 59.52,13.712 57.96,13.712 C56.232,13.712 55.032,15.176 55.032,16.952 L55.032,23 L52.104,23 L52.104,6.2 Z M67.248,8.144 L70.176,7.832 L70.176,11.192 L73.44,11.192 L73.44,13.712 L70.152,13.712 L70.152,18.824 C70.152,19.952 70.776,20.504 71.688,20.504 C72.144,20.504 72.672,20.36 73.104,20.144 L73.92,22.64 C73.08,22.976 72.384,23.12 71.496,23.144 C68.928,23.24 67.248,21.776 67.248,18.824 L67.248,13.712 L65.04,13.712 L65.04,11.192 L67.248,11.192 L67.248,8.144 Z M93.336,18.704 L95.496,20.888 C93.768,22.592 91.536,23.384 89.112,23.384 C82.872,23.384 80.232,19.088 80.208,14.72 C80.184,10.328 83.04,5.864 89.112,5.864 C91.392,5.864 93.552,6.728 95.28,8.432 L93.168,10.472 C92.064,9.392 90.576,8.888 89.112,8.888 C85.056,8.888 83.304,11.912 83.328,14.72 C83.352,17.504 84.96,20.408 89.112,20.408 C90.576,20.408 92.232,19.808 93.336,18.704 Z M96.816,6.2 L99.744,6.2 L99.744,12.776 C100.8,11.408 102.096,11 103.44,11 C106.8,11 108.288,13.28 108.288,16.76 L108.288,23 L105.36,23 L105.36,16.784 C105.36,14.624 104.232,13.712 102.672,13.712 C100.944,13.712 99.744,15.176 99.744,16.952 L99.744,23 L96.816,23 L96.816,6.2 Z M120.048,12.8 L120.144,11.168 L122.952,11.168 L122.952,23 L120.192,23 L120.048,21.272 C119.376,22.664 117.528,23.336 116.208,23.36 C112.704,23.384 110.112,21.224 110.112,17.072 C110.112,12.992 112.824,10.856 116.28,10.88 C117.864,10.88 119.376,11.624 120.048,12.8 Z M116.544,13.496 C114.6,13.496 113.04,14.816 113.04,17.072 C113.04,19.328 114.6,20.672 116.544,20.672 C121.152,20.672 121.152,13.496 116.544,13.496 Z M128.352,11.12 L128.352,23 L125.424,23 L125.424,11.12 L128.352,11.12 Z M125.16,7.832 C125.16,5.552 128.616,5.552 128.616,7.832 C128.616,10.112 125.16,10.112 125.16,7.832 Z M142.632,23 L139.704,23 L139.704,16.808 C139.704,15.008 138.72,13.64 136.848,13.64 C135.048,13.64 133.824,15.152 133.824,16.952 L133.824,23 L130.92,23 L130.92,11.144 L133.536,11.144 L133.728,12.752 C134.928,11.576 136.128,10.976 137.616,10.976 C140.4,10.976 142.632,13.064 142.632,16.784 L142.632,23 Z" id="path-1"></path>
        <path d="M3.525,3.06 C4.845,4.065 6.09,5.07 7.23,6.075 C8.01,5.04 8.685,3.87 9.255,2.55 L10.545,3.24 C9.915,4.695 9.18,5.97 8.34,7.065 C9.42,8.055 10.425,9.06 11.325,10.05 L10.215,11.16 C9.405,10.2 8.46,9.195 7.38,8.175 C6.12,9.525 4.65,10.545 2.985,11.265 L2.16,9.975 C3.735,9.33 5.115,8.4 6.285,7.17 C5.145,6.15 3.87,5.115 2.49,4.065 L3.525,3.06 Z M1.45661261e-13,0.675 L12.03,0.675 L12.03,2.04 L1.365,2.04 L1.365,11.985 L12.495,11.985 L12.495,13.35 L1.45661261e-13,13.35 L1.45661261e-13,0.675 Z M22.665,8.775 C21.945,11.115 20.625,12.84 18.705,13.965 L17.835,12.81 C19.695,11.805 20.895,10.2 21.465,7.995 L18.585,7.995 L18.585,6.63 L21.735,6.63 C21.825,6 21.87,5.355 21.87,4.665 L21.87,3.63 L19.215,3.63 L19.215,2.265 L21.87,2.265 L21.87,0.12 L23.25,0.12 L23.25,2.265 L26.475,2.265 L26.475,6.63 L27.66,6.63 L27.66,7.995 L23.625,7.995 C24.495,9.975 25.905,11.58 27.825,12.81 L26.85,13.965 C24.96,12.57 23.565,10.845 22.665,8.775 Z M23.25,3.63 L23.25,4.335 C23.25,5.145 23.205,5.91 23.115,6.63 L25.095,6.63 L25.095,3.63 L23.25,3.63 Z M14.085,3.975 L15.615,3.975 L15.615,0.18 L17.025,0.18 L17.025,3.975 L18.645,3.975 L18.645,5.355 L17.025,5.355 L17.025,9.93 C17.67,9.69 18.3,9.42 18.93,9.135 L18.93,10.56 C17.46,11.235 15.9,11.805 14.22,12.255 L13.86,10.815 C14.46,10.695 15.045,10.545 15.615,10.395 L15.615,5.355 L14.085,5.355 L14.085,3.975 Z M30.195,0.285 C31.095,1.035 31.86,1.8 32.475,2.55 L31.485,3.54 C30.945,2.82 30.18,2.055 29.205,1.23 L30.195,0.285 Z M29.97,3.78 C30.855,4.53 31.605,5.265 32.205,6 L31.215,6.99 C30.69,6.285 29.955,5.535 28.995,4.725 L29.97,3.78 Z M31.38,8.055 L32.64,8.55 C31.98,10.425 31.245,12.195 30.435,13.845 L29.145,13.29 C30.015,11.58 30.75,9.825 31.38,8.055 Z M32.775,2.49 L34.68,2.49 C34.47,1.725 34.23,1.02 33.96,0.36 L35.4,0.12 C35.61,0.81 35.82,1.605 36.03,2.49 L37.86,2.49 L37.86,3.87 L37.245,3.87 C36.99,5.73 36.675,7.305 36.285,8.595 C36.975,9.795 37.56,10.89 38.025,11.895 L36.9,12.69 C36.525,11.88 36.105,11.055 35.655,10.2 C34.95,11.61 33.975,12.885 32.745,14.01 L31.86,12.885 C33.12,11.745 34.05,10.5 34.68,9.12 C34.74,8.985 34.785,8.85 34.83,8.73 C34.26,7.725 33.615,6.69 32.925,5.61 L34.005,4.92 C34.485,5.655 34.935,6.36 35.355,7.05 C35.595,6.09 35.79,5.04 35.94,3.87 L32.775,3.87 L32.775,2.49 Z M38.55,1.41 L39.87,1.41 L39.87,10.71 L38.55,10.71 L38.55,1.41 Z M40.845,13.815 L38.82,13.815 L38.505,12.435 C39.15,12.495 39.765,12.525 40.35,12.525 C40.74,12.525 40.935,12.315 40.935,11.925 L40.935,0.15 L42.3,0.15 L42.3,12.285 C42.3,13.305 41.805,13.815 40.845,13.815 Z M55.005,5.52 L55.005,10.98 L53.61,10.98 L53.61,6.81 L48.015,6.81 L48.015,10.995 L46.605,10.995 L46.605,5.52 L55.005,5.52 Z M49.965,7.65 L51.36,7.65 L51.36,8.7 C51.345,8.925 51.315,9.15 51.285,9.36 L52.545,9.36 L52.545,11.79 C52.545,12.195 52.755,12.405 53.175,12.405 L55.425,12.405 C55.665,12.405 55.845,12.315 55.965,12.165 C56.1,11.985 56.19,11.43 56.25,10.53 L57.555,10.965 C57.45,12.285 57.24,13.08 56.94,13.35 C56.67,13.59 56.25,13.71 55.68,13.71 L52.755,13.71 C51.705,13.71 51.18,13.17 51.18,12.09 L51.18,9.87 C50.94,10.8 50.475,11.565 49.8,12.195 C48.84,13.005 47.295,13.62 45.165,14.055 L44.355,12.795 C46.485,12.39 47.94,11.88 48.72,11.265 C49.47,10.605 49.89,9.75 49.965,8.7 L49.965,7.65 Z M47.97,0.12 L49.38,0.12 L49.38,5.04 L47.97,5.04 L47.97,0.12 Z M45.03,0.735 L46.41,0.735 L46.41,4.575 L45.03,4.575 L45.03,0.735 Z M52.62,2.43 C52.155,3.285 51.615,4.005 51,4.575 L49.935,3.585 C50.925,2.58 51.66,1.38 52.11,1.45661261e-13 L53.475,0.36 L53.205,1.125 L57.375,1.125 L57.375,2.43 L52.62,2.43 Z M53.97,2.67 C54.825,3.15 55.605,3.735 56.325,4.41 L55.44,5.415 C54.72,4.665 53.925,4.035 53.085,3.495 L53.97,2.67 Z" id="path-2"></path>
        <path d="M60.39,0.6 L65.205,0.6 L65.205,4.5 L60.39,4.5 L60.39,0.6 Z M63.915,3.315 L63.915,1.815 L61.68,1.815 L61.68,3.315 L63.915,3.315 Z M66.6,0.6 L71.55,0.6 L71.55,4.5 L69.765,4.5 C70.05,4.89 70.305,5.295 70.515,5.715 L72.555,5.715 L72.555,6.975 L68.85,6.975 C69.795,7.725 71.13,8.31 72.84,8.76 L72.27,9.96 C71.97,9.855 71.7,9.75 71.445,9.66 L71.445,13.965 L70.185,13.965 L70.185,13.38 L67.755,13.38 L67.755,13.965 L66.495,13.965 L66.495,9.06 L70.08,9.06 C68.88,8.445 67.935,7.755 67.275,6.975 L64.845,6.975 C64.095,7.785 63.135,8.49 61.965,9.06 L65.28,9.06 L65.28,13.965 L64.02,13.965 L64.02,13.38 L61.845,13.38 L61.845,13.965 L60.6,13.965 L60.6,9.63 C60.27,9.75 59.94,9.855 59.61,9.96 L58.965,8.805 C60.645,8.325 61.98,7.71 62.97,6.975 L59.235,6.975 L59.235,5.715 L64.245,5.715 C64.5,5.37 64.71,5.01 64.86,4.65 L66.225,4.8 C66.09,5.115 65.94,5.415 65.775,5.715 L69.12,5.715 C68.94,5.4 68.745,5.115 68.55,4.86 L69.66,4.5 L66.6,4.5 L66.6,0.6 Z M70.26,3.315 L70.26,1.815 L67.89,1.815 L67.89,3.315 L70.26,3.315 Z M61.845,12.165 L64.02,12.165 L64.02,10.23 L61.845,10.23 L61.845,12.165 Z M67.755,12.165 L70.185,12.165 L70.185,10.23 L67.755,10.23 L67.755,12.165 Z" id="path-3"></path>
    </defs>
    <g id="页面2" stroke="none" stroke-width="1" fill="none" fill-rule="evenodd">
        <g id="画板" transform="translate(-260.000000, -268.000000)">
            <g id="编组-2" transform="translate(262.000000, 269.000000)">
                <g id="浏览器logo" transform="translate(54.000000, 0.000000)" fill-rule="nonzero">
                    <g id="Insight-Chain">
                        <g id="编组-71">
                            <g id="InsightChain">
                                <use fill="#000000" xlink:href="#path-1"></use>
                                <use fill="#FFFFFF" xlink:href="#path-1"></use>
                            </g>
                            <g id="区块浏览器" transform="translate(1.549524, 33.486258)">
                                <g id="区块浏览">
                                    <use fill="#000000" xlink:href="#path-2"></use>
                                    <use fill="#FFFFFF" xlink:href="#path-2"></use>
                                </g>
                                <g id="器" fill="#FFFFFF">
                                    <use xlink:href="#path-3"></use>
                                    <use xlink:href="#path-3"></use>
                                </g>
                            </g>
                        </g>
                    </g>
                </g>
                <g id="编组" transform="translate(0.000000, 1.000000)">
                    <path d="M47.7778933,23.9073867 C47.7778933,37.0908533 37.0906933,47.7780533 23.9072267,47.7780533 C10.7240267,47.7780533 0.0368266667,37.0908533 0.0368266667,23.9073867 C0.0368266667,10.7241867 10.7240267,0.03672 23.9072267,0.03672 C37.0906933,0.03672 47.7778933,10.7241867 47.7778933,23.9073867 Z" id="Stroke-1" stroke="#FFFFFF" stroke-width="3.2736"></path>
                    <path d="M31.6150133,25.4349867 L28.9875467,25.4349867 C28.9638133,25.4349867 28.9419467,25.4216533 28.9310133,25.40032 L26.19848,20.5253867 C26.1747467,20.48272 26.1835467,20.4288533 26.2203467,20.3960533 L26.5470133,20.1037867 C26.5891467,20.0661867 26.65368,20.0688533 26.6926133,20.10992 L31.6611467,25.32752 C31.6998133,25.3677867 31.6710133,25.4349867 31.6150133,25.4349867 M39.5115467,31.72032 L34.4483467,26.1768533 C28.9574133,8.33152 3.72008,13.7808533 3.72008,13.7808533 C-4.83485333,30.9781867 9.52541333,41.4101867 9.52541333,41.4101867 C17.51288,24.4309867 34.1875467,32.17872 36.28168,33.0296533 C37.9235467,33.69712 36.6998133,34.8552533 36.2787467,35.1997867 C36.24728,35.2256533 36.2723467,35.27632 36.3123467,35.2685867 C41.3062133,34.2845867 39.5115467,31.72032 39.5115467,31.72032" id="Fill-3" fill="#FFFFFF"></path>
                </g>
            </g>
        </g>
    </g>
</svg>