<?xml version="1.0" encoding="UTF-8"?>
<svg width="38px" height="30px" viewBox="0 0 38 30" version="1.1" xmlns="http://www.w3.org/2000/svg" xmlns:xlink="http://www.w3.org/1999/xlink">
    <!-- Generator: Sketch 54.1 (76490) - https://sketchapp.com -->
    <title>菜单 (1)</title>
    <desc>Created with Sketch.</desc>
    <g id="页面2" stroke="none" stroke-width="1" fill="none" fill-rule="evenodd">
        <g id="画板" transform="translate(-628.000000, -36.000000)" fill="#FFFFFF" fill-rule="nonzero">
            <g id="菜单-(1)" transform="translate(628.000000, 36.000000)">
                <path d="M35.0687407,5.83027123 L2.93125933,5.83027123 C1.32438524,5.83027123 0.00967009558,4.52030998 0.00967016262,2.9192462 C0.00967022966,1.31818243 1.32438531,0.00822117672 2.93125933,0.00822124427 L35.0687407,0.00822124427 C36.6756148,0.00822124427 37.9903299,1.3181825 37.9903298,2.9192462 C37.9903298,4.52030991 36.6756147,5.83027123 35.0687407,5.83027123 Z M35.0687407,17.911025 L2.93125933,17.911025 C1.32438524,17.911025 0.00967009558,16.6010638 0.00967016262,15 C0.00967022966,13.3989362 1.32438531,12.088975 2.93125933,12.088975 L35.0687407,12.088975 C36.6756148,12.088975 37.9903299,13.3989362 37.9903298,15 C37.9903298,16.6010638 36.6756147,17.911025 35.0687407,17.911025 Z M35.0687407,29.9917788 L2.93125933,29.9917788 C1.32438524,29.9917788 0.00967009558,28.6818175 0.00967016262,27.0807538 C0.00967022966,25.4796901 1.32438531,24.1697288 2.93125933,24.1697288 L35.0687407,24.1697288 C36.6756148,24.1697288 37.9903299,25.47969 37.9903298,27.0807538 C37.9903298,28.6818176 36.6756147,29.9917788 35.0687407,29.9917788 Z" id="形状"></path>
            </g>
        </g>
    </g>
</svg>