<?xml version="1.0" encoding="UTF-8"?>
<svg width="12px" height="20px" viewBox="0 0 12 20" version="1.1" xmlns="http://www.w3.org/2000/svg" xmlns:xlink="http://www.w3.org/1999/xlink">
    <!-- Generator: Sketch 54.1 (76490) - https://sketchapp.com -->
    <title>路径</title>
    <desc>Created with Sketch.</desc>
    <g id="页面2" stroke="none" stroke-width="1" fill="none" fill-rule="evenodd" opacity="0.900000036">
        <g id="画板复制-4" transform="translate(-670.000000, -496.000000)" fill="#396EA0" fill-rule="nonzero">
            <g id="编组-2" transform="translate(548.000000, 486.000000)">
                <path d="M133.868504,20.4644842 C134.103753,19.9886945 134.026732,19.4066127 133.610167,19.024043 L124.16555,10.3408532 C123.650546,9.86760026 122.838648,9.89011109 122.350916,10.3899656 C121.864102,10.8905743 121.886437,11.6797786 122.401441,12.1538314 L130.875697,19.9463239 L122.434873,27.8543873 C121.924948,28.332668 121.909548,29.1218494 122.401441,29.6182759 C122.653007,29.8728424 122.989187,30 123.325462,30 C123.64622,30 123.967119,29.8836293 124.216052,29.6507737 L133.575019,20.8827513 C133.593052,20.8653597 133.599846,20.8412034 133.617832,20.8229205 C133.631539,20.8103738 133.646045,20.8012324 133.659752,20.7879773 C133.732494,20.7138858 133.771005,20.6232712 133.820613,20.5384157 C133.834319,20.5126368 133.85649,20.4910858 133.868504,20.4644842 Z" id="路径"></path>
            </g>
        </g>
    </g>
</svg>