<?xml version="1.0" encoding="UTF-8"?>
<svg width="11px" height="12px" viewBox="0 0 11 12" version="1.1" xmlns="http://www.w3.org/2000/svg" xmlns:xlink="http://www.w3.org/1999/xlink">
    <!-- Generator: Sketch 54.1 (76490) - https://sketchapp.com -->
    <title>形状</title>
    <desc>Created with Sketch.</desc>
    <g id="页面2" stroke="none" stroke-width="1" fill="none" fill-rule="evenodd">
        <g id="iPhone-8" transform="translate(-300.000000, -133.000000)" fill="#396EA0" fill-rule="nonzero">
            <g id="sous" transform="translate(300.000000, 133.000000)">
                <path d="M7.92673345,9.52046702 C7.06497987,10.1426901 6.04641418,10.4817589 5.00059392,10.4945451 C2.24143859,10.4945451 0.00470125581,8.14631223 0.00470125581,5.24962016 C0.00470125581,2.3529281 2.24143859,0.00469521058 5.00059392,0.00469521058 C7.75974925,0.00469521058 9.99648658,2.3529281 9.99648658,5.24962016 C10.0186044,6.59019028 9.530543,7.88466285 8.64046512,8.84616073 L10.9966726,11.3188575 L10.3543828,11.9931638 L7.92719142,9.52046702 L7.92673345,9.52046702 Z M5.00059392,9.59547007 C6.07966066,9.59598053 7.11467129,9.14618153 7.87768678,8.3451317 C8.64070228,7.54408186 9.06914454,6.45747864 9.06865831,5.32462321 C9.06865831,2.96589963 7.24732385,1.05377636 5.00059392,1.05377636 C2.75386399,1.05377636 0.932529523,2.96589963 0.932529523,5.32462321 C0.932529523,7.6833468 2.75386399,9.59547007 5.00059392,9.59547007 Z" id="形状"></path>
            </g>
        </g>
    </g>
</svg>