<?xml version="1.0" encoding="UTF-8"?>
<svg width="149px" height="140px" viewBox="0 0 149 140" version="1.1" xmlns="http://www.w3.org/2000/svg" xmlns:xlink="http://www.w3.org/1999/xlink">
    <!-- Generator: Sketch 54.1 (76490) - https://sketchapp.com -->
    <title>编组 26</title>
    <desc>Created with Sketch.</desc>
    <defs>
        <linearGradient x1="50%" y1="0%" x2="50%" y2="93.3331159%" id="linearGradient-1">
            <stop stop-color="#C8C8C8" offset="0%"></stop>
            <stop stop-color="#F0EEEE" offset="100%"></stop>
        </linearGradient>
        <path d="M141.029549,94.2840765 L129.932689,84.5971978 C129.928297,84.5933639 129.923897,84.5895391 129.919489,84.5857235 C128.160327,83.0629048 125.499756,83.2544988 123.976937,85.0136609 L123.970434,85.0211728 C122.443021,86.7856432 122.629534,89.452929 124.387648,90.9876549 L137.542856,102.471345 C137.547248,102.475179 137.551648,102.479003 137.556056,102.482819 C137.633077,102.549492 137.711826,102.612879 137.792132,102.672992 C140.815176,105.741932 141.015288,110.667038 138.149753,113.977307 L138.136957,113.992089 C135.140443,117.453666 129.905126,117.830673 126.443549,114.834159 C126.434875,114.826651 126.426217,114.819125 126.417575,114.811581 L118.731957,108.102507 C107.746016,118.263528 93.0761104,124.469069 76.9628869,124.469069 C42.9028773,124.469069 15.2917841,96.7419797 15.2917841,62.5388822 C15.2917841,60.815531 15.3618812,59.1086207 15.4993685,57.4208695 L3.45347449,46.9055429 C-0.00604050137,43.8855986 -0.373050295,38.6370683 2.63250612,35.165046 L2.64530184,35.1502644 C5.64181619,31.6886875 10.8771335,31.3116799 14.3387104,34.3081942 C14.3473838,34.3157023 14.3560416,34.3232285 14.3646837,34.3307725 L19.8529581,39.1216994 C19.8563193,39.1134417 19.8596821,39.1051849 19.8630467,39.096929 L25.0329861,43.6099689 C25.0399282,43.6160289 25.0468828,43.6220745 25.0538499,43.6281056 C27.8344609,46.0351417 32.0398797,45.7322995 34.4469158,42.9516886 C36.8668988,40.1561214 36.5713936,35.9301638 33.785897,33.4985961 L26.4091579,27.0591553 C26.4139451,27.0522895 26.4187337,27.0454247 26.4235236,27.038561 L21.275863,22.544969 C18.8882945,20.4607681 18.6350043,16.8385188 20.7092754,14.4423184 C22.5529305,12.3125259 25.6274863,11.878639 27.961561,13.2826217 L42.2527314,25.7579368 C42.2578317,25.762389 42.2629412,25.7668307 42.2680599,25.7712617 C44.3109577,27.5396964 47.4006532,27.3172001 49.1690879,25.2743022 C50.9470346,23.2204162 50.7299287,20.115631 48.6834414,18.3291731 L41.3780389,11.9520048 C41.3881634,11.9448098 41.3982901,11.9376178 41.4084191,11.9304287 L35.0430569,6.34354604 C33.5445407,5.02829731 33.3894666,2.74977892 34.6959605,1.24362358 C35.9926556,-0.251235501 38.2556574,-0.411879136 39.7505165,0.884815974 C39.7557742,0.889376694 39.7610186,0.893952724 39.7662496,0.898544005 L47.8049302,7.95409932 C56.4869145,3.26751009 66.4157,0.608695652 76.9628869,0.608695652 C111.022896,0.608695652 138.63399,28.3357846 138.63399,62.5388822 C138.63399,67.5447955 138.042538,72.4119875 136.92598,77.0738336 L146.965836,85.8380122 C149.126017,87.7237178 149.355185,91.000991 147.478463,93.1689819 C145.839899,95.0618532 143.126711,95.474134 141.029549,94.2840765 Z" id="path-2"></path>
    </defs>
    <g id="页面2" stroke="none" stroke-width="1" fill="none" fill-rule="evenodd">
        <g id="编组-26">
            <g id="编组-24" transform="translate(0.000000, 14.702962)">
                <mask id="mask-3" fill="white">
                    <use xlink:href="#path-2"></use>
                </mask>
                <use id="蒙版" fill="url(#linearGradient-1)" xlink:href="#path-2"></use>
                <g mask="url(#mask-3)">
                    <g transform="translate(48.237495, 41.817428)">
                        <path d="M3.49833447,0 L51.9975222,0 L62.3010073,10.3661794 L62.3010073,86.4088613 C62.3010073,88.3409381 60.7347496,89.9071958 58.8026728,89.9071958 L3.49833447,89.9071958 C1.56625769,89.9071958 -1.98383489e-15,88.3409381 -2.22044605e-15,86.4088613 L4.4408921e-16,3.49833447 C2.07478046e-16,1.56625769 1.56625769,1.24309517e-15 3.49833447,8.8817842e-16 Z" id="矩形" stroke="none" fill="#FFFFFF" fill-rule="evenodd"></path>
                        <polyline id="路径-49" stroke="#CBCBCB" stroke-width="1.74916723" fill="none" points="50.6547412 1.27388089 50.6547412 11.1304614 61.4562729 11.1304614"></polyline>
                        <path d="M6.81555805,29.6138616 L50.6547412,29.6138616" id="直线-6" stroke="#CBCBCB" stroke-width="2.18737966" fill="none" opacity="0.697381882" stroke-linecap="square"></path>
                        <path d="M6.81555805,39.45707 L31.1505036,39.45707" id="直线-6复制" stroke="#CBCBCB" stroke-width="2.18737966" fill="none" opacity="0.697381882" stroke-linecap="square"></path>
                        <path d="M6.81555805,49.3002785 L46.3318931,49.3002785" id="直线-6复制-2" stroke="#CBCBCB" stroke-width="2.18737966" fill="none" opacity="0.697381882" stroke-linecap="square"></path>
                        <path d="M6.81555805,59.1434869 L39.6420972,59.1434869" id="直线-6复制-3" stroke="#CBCBCB" stroke-width="2.18737966" fill="none" opacity="0.697381882" stroke-linecap="square"></path>
                    </g>
                </g>
            </g>
            <ellipse id="椭圆形" stroke="#FFFFFF" stroke-width="1.9139572" cx="36.5295148" cy="67.8087693" rx="2.722786" ry="2.73422457"></ellipse>
            <ellipse id="椭圆形复制-9" stroke="#FFFFFF" stroke-width="1.9139572" cx="95.3416923" cy="4.92160423" rx="2.722786" ry="2.73422457"></ellipse>
            <ellipse id="椭圆形复制-8" stroke="#FFFFFF" stroke-width="1.9139572" cx="128.015124" cy="86.1280739" rx="2.722786" ry="2.73422457"></ellipse>
            <ellipse id="椭圆形复制-7" stroke="#FFFFFF" stroke-width="2.73422457" cx="75.193076" cy="35.2714969" rx="4.08417899" ry="4.10133685"></ellipse>
            <g id="编组-25" transform="translate(109.227901, 39.372834)" fill="#FFFFFF">
                <rect id="矩形" x="2.1782288" y="0" width="1.361393" height="5.46844914" rx="0.680696499"></rect>
                <path d="M2.722786,0.148149803 L2.722786,0.148149803 C3.10030363,0.148149803 3.40634214,0.454188312 3.40634214,0.831705945 L3.40634214,4.91016565 C3.40634214,5.28768328 3.10030363,5.59372179 2.722786,5.59372179 L2.722786,5.59372179 C2.34526836,5.59372179 2.03922985,5.28768328 2.03922985,4.91016565 L2.03922985,0.831705945 C2.03922985,0.454188312 2.34526836,0.148149803 2.722786,0.148149803 Z" id="矩形" transform="translate(2.722786, 2.870936) rotate(-90.000000) translate(-2.722786, -2.870936) "></path>
                <path d="M2.99506459,0.148149803 L2.99506459,0.148149803 C3.37258223,0.148149803 3.67862074,0.454188312 3.67862074,0.831705945 L3.67862074,4.91016565 C3.67862074,5.28768328 3.37258223,5.59372179 2.99506459,5.59372179 L2.99506459,5.59372179 C2.61754696,5.59372179 2.31150845,5.28768328 2.31150845,4.91016565 L2.31150845,0.831705945 C2.31150845,0.454188312 2.61754696,0.148149803 2.99506459,0.148149803 Z" id="矩形复制-26" transform="translate(2.995065, 2.870936) rotate(-90.000000) translate(-2.995065, -2.870936) "></path>
            </g>
            <g id="编组-25复制-3" transform="translate(63.757375, 0.000000)" fill="#FFFFFF">
                <rect id="矩形" x="1.9059502" y="0" width="1.0891144" height="4.92160423" rx="0.544557199"></rect>
                <path d="M2.4505074,0.0102947169 L2.4505074,0.0102947169 C2.7525215,0.0102947169 2.99735231,0.255125524 2.99735231,0.557139631 L2.99735231,4.36446459 C2.99735231,4.6664787 2.7525215,4.91130951 2.4505074,4.91130951 L2.4505074,4.91130951 C2.14849329,4.91130951 1.90366248,4.6664787 1.90366248,4.36446459 L1.90366248,0.557139631 C1.90366248,0.255125524 2.14849329,0.0102947169 2.4505074,0.0102947169 Z" id="矩形" transform="translate(2.450507, 2.460802) rotate(-90.000000) translate(-2.450507, -2.460802) "></path>
            </g>
            <g id="编组-25复制-2" transform="translate(117.940816, 12.304011)" fill="#FFFFFF">
                <rect id="矩形" x="2.1782288" y="0" width="1.6336716" height="6.01529405" rx="0.816835799"></rect>
                <path d="M2.99506459,0.0125824318 L2.99506459,0.0125824318 C3.44808575,0.0125824318 3.81533197,0.379828643 3.81533197,0.832849803 L3.81533197,5.18244425 C3.81533197,5.63546541 3.44808575,6.00271162 2.99506459,6.00271162 L2.99506459,6.00271162 C2.54204343,6.00271162 2.17479722,5.63546541 2.17479722,5.18244425 L2.17479722,0.832849803 C2.17479722,0.379828643 2.54204343,0.0125824318 2.99506459,0.0125824318 Z" id="矩形" transform="translate(2.995065, 3.007647) rotate(-90.000000) translate(-2.995065, -3.007647) "></path>
            </g>
            <g id="编组-25复制" transform="translate(28.633435, 88.042031)" fill="#FFFFFF">
                <rect id="矩形" x="1.9059502" y="0" width="1.361393" height="5.19502668" rx="0.680696499"></rect>
                <path d="M2.5866467,0.0108666457 L2.5866467,0.0108666457 C2.96416433,0.0108666457 3.27020284,0.316905155 3.27020284,0.694422788 L3.27020284,4.50060389 C3.27020284,4.87812153 2.96416433,5.18416004 2.5866467,5.18416004 L2.5866467,5.18416004 C2.20912906,5.18416004 1.90309055,4.87812153 1.90309055,4.50060389 L1.90309055,0.694422788 C1.90309055,0.316905155 2.20912906,0.0108666457 2.5866467,0.0108666457 Z" id="矩形" transform="translate(2.586647, 2.597513) rotate(-90.000000) translate(-2.586647, -2.597513) "></path>
            </g>
        </g>
    </g>
</svg>