<?xml version="1.0" encoding="UTF-8"?>
<svg width="32px" height="32px" viewBox="0 0 32 32" version="1.1" xmlns="http://www.w3.org/2000/svg" xmlns:xlink="http://www.w3.org/1999/xlink">
    <!-- Generator: Sketch 54.1 (76490) - https://sketchapp.com -->
    <title>biyong</title>
    <desc>Created with Sketch.</desc>
    <g id="组件" stroke="none" stroke-width="1" fill="none" fill-rule="evenodd">
        <g id="icon/biyong" fill="#FFFFFF" fill-rule="nonzero">
            <g id="biyong">
                <path d="M19.5085132,11 L14.4916883,11 C13.1154768,11 12,12.1620027 12,13.5953563 L12,19.0553212 C12,19.1816578 12.0116867,19.3048464 12.0284108,19.4267759 L12,19.4490212 L12.0167241,22.3148889 C12.0167241,22.3148889 11.9667533,23.281091 12.8122267,22.9186603 L14.1920651,21.6299012 C14.2903947,21.6424929 14.3901348,21.6504676 14.4916883,21.6504676 L19.5085132,21.6504676 C20.8847246,21.6504676 22,20.4886747 22,19.0553212 L22,13.5953563 C22.0002015,12.1617929 20.8849262,11 19.5085132,11 Z M15.243668,17.023233 C14.8084415,17.023233 14.4556207,16.6557626 14.4556207,16.2024649 C14.4556207,15.7491672 14.8084415,15.3816968 15.243668,15.3816968 C15.6788945,15.3816968 16.0317153,15.7491672 16.0317153,16.2024649 C16.0317153,16.6557626 15.6788945,17.023233 15.243668,17.023233 Z M18.9139011,17.023233 C18.4787859,17.0233489 18.1259651,16.6560664 18.1258538,16.2028846 C18.1257425,15.7497028 18.4783829,15.3822324 18.9134981,15.3821165 C19.1949684,15.3820416 19.455096,15.5383698 19.5958934,15.7922139 C19.7366908,16.046058 19.7367677,16.358853 19.5960949,16.6127721 C19.4554221,16.8666912 19.1953714,17.023158 18.9139011,17.023233 L18.9139011,17.023233 Z" id="形状"></path>
                <path d="M15.9999003,1.30747714e-15 C7.16339967,1.30747714e-15 0,7.16331044 0,15.9999003 C0,24.8366896 7.16359898,31.9998007 15.9999003,32 C24.8366003,32 32,24.8366896 32,15.9999003 C32,7.16350975 24.8366003,0 15.9999003,1.30747714e-15 Z M26.1766358,20.1604764 C26.1766358,22.808623 24.148544,24.9817935 21.5611573,25.2147969 L21.5611573,25.2301444 L21.3460899,25.2301444 C21.1828111,25.2381495 21.0192382,25.2381495 20.8559594,25.2301444 L19.8222804,25.2301444 L19.8222804,27.6096097 C19.8222804,27.8280628 19.6448846,28.0048584 19.4270267,28.0048584 L18.701498,28.0048584 C18.4832055,28.0048584 18.3062444,27.8278995 18.3062444,27.6096097 L18.3062444,25.2303438 L14.9905385,25.2303438 L14.9905385,27.609809 C14.9905385,27.71467 14.9488684,27.8152333 14.8747009,27.8893625 C14.8005333,27.9634918 14.6999478,28.0051106 14.5950855,28.0050577 L13.8699555,28.0050577 C13.7650932,28.0051106 13.6645076,27.9634918 13.5903401,27.8893625 C13.5161725,27.8152333 13.4745025,27.71467 13.4745025,27.609809 L13.4745025,25.2303438 L8.60469028,25.2303438 C8.56382946,25.2329349 8.52316795,25.2363233 8.48170917,25.2363233 C7.99855756,25.2363233 7.53519749,25.0443808 7.1935764,24.7027266 C6.85195531,24.3610724 6.66006114,23.8976971 6.660114,23.4145515 C6.66010586,22.7509949 7.0212026,22.1400098 7.60250399,21.8200029 L7.60250399,10.2346104 C7.02120147,9.91440684 6.66013229,9.30331556 6.660114,8.63966315 C6.66022405,7.63368203 7.47571552,6.81820071 8.48170917,6.81809064 C8.50124262,6.81809064 8.52017814,6.82048246 8.53951231,6.82127976 L13.4747018,6.82127976 L13.4747018,4.66883842 C13.4747018,4.45058458 13.6516989,4.27358966 13.8701548,4.27358966 L14.5952848,4.27358966 C14.8135414,4.27358966 14.9907378,4.45058455 14.9907378,4.66883842 L14.9907378,6.82108042 L18.3064437,6.82108042 L18.3064437,4.66883842 C18.3064437,4.45058458 18.4836401,4.27358966 18.7016973,4.27358966 L19.427226,4.27358966 C19.6452832,4.27358966 19.8224797,4.45058455 19.8224797,4.66883842 L19.8224797,6.82108042 L20.9853188,6.82108042 C21.0237877,6.82008382 21.062456,6.81789133 21.1013236,6.81789133 C21.1397926,6.81789133 21.1786602,6.82008385 21.2171291,6.82108042 L21.5613566,6.82108042 L21.5613566,6.83961705 C24.1487434,7.07222184 26.1768352,9.24559163 26.1768352,11.8935389 C26.1768352,13.4129445 25.5083123,14.7754863 24.4501168,15.7057061 L24.4501168,16.3483092 C25.5083123,17.278529 26.1766358,18.6412702 26.1766358,20.1604764 Z" id="形状"></path>
            </g>
        </g>
    </g>
</svg>