<?xml version="1.0" encoding="UTF-8"?>
<svg width="32px" height="32px" viewBox="0 0 32 32" version="1.1" xmlns="http://www.w3.org/2000/svg" xmlns:xlink="http://www.w3.org/1999/xlink">
    <!-- Generator: Sketch 54.1 (76490) - https://sketchapp.com -->
    <title>电报</title>
    <desc>Created with Sketch.</desc>
    <g id="组件" stroke="none" stroke-width="1" fill="none" fill-rule="evenodd">
        <g id="icon/电报" fill="#FFFFFF" fill-rule="nonzero">
            <g id="电报">
                <path d="M21.232,23.3389091 L23.8545455,10.9643636 C24.0865455,9.87345453 23.4618182,9.44654544 22.7469091,9.71418181 L7.32145453,15.6603636 C6.26763634,16.0705454 6.28581816,16.6603636 7.14327272,16.928 L11.0894545,18.16 L20.2530909,12.392 C20.6814545,12.1061818 21.0749091,12.2676364 20.7534545,12.5534545 L13.3403636,19.2487273 L13.0545455,23.3214545 C13.3679245,23.3227243 13.6638829,23.1774356 13.8545455,22.9287273 L15.7825455,21.072 L19.7825455,24.0181818 C20.5149091,24.4283636 21.0327273,24.2145454 21.2290909,23.3396364 L21.232,23.3389091 Z M32,16 C32,24.836556 24.836556,32 16,32 C7.163444,32 1.082166e-15,24.836556 0,16 C-1.082166e-15,7.163444 7.163444,1.623249e-15 16,0 C24.836556,5.41083001e-16 32,7.163444 32,16 Z" id="形状"></path>
            </g>
        </g>
    </g>
</svg>