<?xml version="1.0" encoding="UTF-8"?>
<svg width="32px" height="32px" viewBox="0 0 32 32" version="1.1" xmlns="http://www.w3.org/2000/svg" xmlns:xlink="http://www.w3.org/1999/xlink">
    <!-- Generator: Sketch 54.1 (76490) - https://sketchapp.com -->
    <title>形状</title>
    <desc>Created with Sketch.</desc>
    <g id="组件" stroke="none" stroke-width="1" fill="none" fill-rule="evenodd">
        <g id="icon/twitter" fill="#FFFFFF" fill-rule="nonzero">
            <g id="twitter_F">
                <path d="M16,32 C24.83648,32 32,24.83648 32,16 C32,7.16352 24.83648,0 16,0 C7.16352,0 0,7.16352 0,16 C0,24.83648 7.16352,32 16,32 Z M11.29664,11.90208 C14.37312,13.45536 16.9728,13.36576 16.9728,13.36576 C16.9728,13.36576 15.9872,9.93088 19.0336,8.40768 C22.08,6.88448 24.17664,9.4528 24.17664,9.4528 C24.17664,9.4528 24.70784,9.30688 25.10336,9.16096 C25.49952,9.01504 26.07232,8.75456 26.07232,8.75456 L25.13344,10.43008 L26.5792,10.27648 C26.5792,10.27648 26.40128,10.5376 25.82272,11.06816 C25.24416,11.59872 25.00544,11.87264 25.00544,11.87264 C25.00544,11.87264 25.21216,16.00704 23.03424,19.18976 C20.85632,22.37312 18.04224,24.28352 13.95456,24.68544 C9.86688,25.08736 7.20512,23.43104 7.20512,23.43104 C7.20512,23.43104 8.99264,23.32864 10.13184,22.89344 C11.27104,22.45824 12.90944,21.31072 12.90944,21.31072 C12.90944,21.31072 10.57984,20.59392 9.74336,19.78752 C8.90752,18.98112 8.69824,18.50304 8.69824,18.50304 L10.99776,18.47296 C10.99776,18.47296 8.57856,17.18912 7.89184,16.17344 C7.20512,15.15776 7.11552,14.17216 7.11552,14.17216 L8.8832,14.8864 C8.8832,14.8864 7.41376,12.88832 7.20512,11.33504 C6.99584,9.78176 7.47392,8.94592 7.47392,8.94592 C7.47392,8.94592 8.22016,10.3488 11.29664,11.90208 L11.29664,11.90208 Z" id="形状"></path>
            </g>
        </g>
    </g>
</svg>