<?xml version="1.0" encoding="UTF-8"?>
<svg width="32px" height="32px" viewBox="0 0 32 32" version="1.1" xmlns="http://www.w3.org/2000/svg" xmlns:xlink="http://www.w3.org/1999/xlink">
    <!-- Generator: Sketch 54.1 (76490) - https://sketchapp.com -->
    <title>形状</title>
    <desc>Created with Sketch.</desc>
    <g id="组件" stroke="none" stroke-width="1" fill="none" fill-rule="evenodd">
        <g id="icon/weibo" fill="#FFFFFF" fill-rule="nonzero">
            <g id="微博">
                <path d="M12.495,19.248 C11.782,19.248 11.126,19.835 11.1149687,20.482 C11.1059687,21.034 11.5699687,21.4540312 12.1919687,21.4540312 C12.932,21.4550312 13.5509687,20.898 13.5559375,20.2280313 C13.5609375,19.6570312 13.1149375,19.248 12.4949375,19.248 L12.495,19.248 Z M14.269,18.7560312 C14.0570312,18.8600312 13.853,19.0130313 13.707,19.1980312 C13.676,19.2380312 13.893,19.4740625 14.069,19.7270312 C14.295,19.4790312 14.499,19.3360312 14.574,19.1430312 C14.607,19.0600313 14.304,18.7380312 14.269,18.7560312 L14.269,18.7560312 Z M18.747,15.951 C18.403,15.736 18.033,15.556 17.6550313,15.4030312 C16.3900312,14.8970312 15.0630312,14.7470312 13.7140313,14.8650312 C11.6740312,15.0420312 9.7900625,15.6430312 8.32503125,17.1560312 C6.62603125,18.9090312 6.85603125,21.128 8.85603125,22.5190313 C10.2100313,23.4590625 11.7470313,23.7820312 13.3710312,23.7430313 C13.6660312,23.7430313 13.9620312,23.7660313 14.2550625,23.739 C16.1040625,23.562 17.8070625,23.001 19.2180625,21.75 C21.2800625,19.925 21.0730625,17.412 18.7470625,15.951 L18.747,15.951 Z M16.459,21.104 C15.757,22.168 14.514,22.814 13.164,22.821 C11.462,22.832 10.185,21.876 9.959,20.389 C9.909,20.085 9.92296875,19.751 9.992,19.453 C10.335,17.994 11.345,17.179 12.72,16.811 C14.078,16.451 15.341,16.686 16.329,17.765 C17.147,18.658 17.18,20.019 16.459,21.104 Z M16.001,0 C7.164,0 0,7.16396875 0,16 C0,24.8360312 7.16396875,32 16,32 C24.8359687,32 32,24.8360312 32,16 C32,7.16403125 24.837,0 16.001,0 Z M23.631,20.777 C22.264,22.88 20.164,23.923 17.818,24.498 C16.683,24.778 15.498,24.864 14.882,24.9580312 C11.973,24.8860312 9.723,24.4560312 7.69403125,23.1950312 C5.13703125,21.6060313 4.39203125,19.2250313 5.72903125,16.5250312 C7.165,13.6290312 9.39903125,11.4870312 12.3310313,10.1100312 C12.8750312,9.85503125 13.4940312,9.71003125 14.0910313,9.63603125 C15.3210313,9.48303125 16.039,10.1810312 16.0080312,11.4190312 C16.0010312,11.6900312 15.94,11.9570312 15.9240625,12.2300312 C15.9120937,12.4630312 15.9290625,12.7000312 15.9350625,12.9340312 C16.1740625,12.8950312 16.4150625,12.8700312 16.6490625,12.818 C17.5970937,12.615 18.5350625,12.276 19.4900625,12.225 C21.1480625,12.137 21.8910625,13.1410312 21.3870625,14.716 C21.1700625,15.387 21.3320625,15.613 21.9590937,15.838 C24.3170937,16.688 24.9960937,18.679 23.6310937,20.777 L23.631,20.777 Z M22.394,11.9479688 C22.004,11.4519688 21.119,11.3369688 20.839,11.3339688 C20.425,11.3309688 20.0910312,10.9919687 20.095,10.5789687 C20.098,10.1669375 20.433,9.83596875 20.8429687,9.83596875 L20.8489687,9.83596875 C21.0319687,9.83596875 22.6729687,9.88296875 23.5709687,11.0209687 C23.927,11.4719688 24.2919687,12.2739688 24.0029687,13.5219687 C23.9229687,13.87 23.6139687,14.1039687 23.2729687,14.1039687 C23.2179687,14.1039687 23.1619687,14.0969688 23.1049687,14.0829687 C22.7009375,13.9899687 22.4499687,13.5869688 22.5429687,13.1849687 C22.6689687,12.6389688 22.6199687,12.2339687 22.3939687,11.9479687 L22.394,11.9479688 Z M26.803,14.4 C26.744,14.768 26.427,15.034 26.0629688,15.034 C26.0259688,15.034 25.9849688,15.029 25.9459688,15.023 C25.5379688,14.96 25.2589688,14.576 25.3219688,14.167 C25.5999688,12.398 25.3169688,11.022 24.4769688,10.082 C23.0149688,8.444 20.3349688,8.541 20.3079688,8.541 C19.8899688,8.558 19.544,8.238 19.5259688,7.826 C19.5089688,7.413 19.8309688,7.063 20.2429687,7.044 C20.3819687,7.039 23.663,6.924 25.5949688,9.083 C26.7469688,10.376 27.1529688,12.165 26.8029688,14.4 L26.803,14.4 Z" id="形状"></path>
            </g>
        </g>
    </g>
</svg>