<?xml version="1.0" encoding="UTF-8"?>
<svg width="32px" height="32px" viewBox="0 0 32 32" version="1.1" xmlns="http://www.w3.org/2000/svg" xmlns:xlink="http://www.w3.org/1999/xlink">
    <!-- Generator: Sketch 54.1 (76490) - https://sketchapp.com -->
    <title>微信</title>
    <desc>Created with Sketch.</desc>
    <g id="组件" stroke="none" stroke-width="1" fill="none" fill-rule="evenodd">
        <g id="icon/weixin" fill="#FFFFFF" fill-rule="nonzero">
            <g id="微信">
                <path d="M18.1115109,15.9870346 C17.7466656,15.9870346 17.3817135,16.3258424 17.3817135,16.7429051 C17.3817135,17.0817841 17.7464877,17.4206275 18.1115109,17.4206275 C18.6590457,17.4206275 19.0500353,17.0817485 19.0500353,16.7429051 C19.0500353,16.325878 18.6591169,15.9870346 18.1115109,15.9870346 L18.1115109,15.9870346 L18.1115109,15.9870346 Z M15.7132494,12.4677015 C16.2867506,12.4677015 16.6517738,12.1028562 16.6517738,11.5552858 C16.6517738,10.9817846 16.2867862,10.6429412 15.7132494,10.6429412 C15.1658213,10.6429412 14.6444307,10.9818202 14.6444307,11.5552858 C14.6443952,12.1029273 15.1658569,12.4677015 15.7132494,12.4677015 L15.7132494,12.4677015 Z M16.0000178,1.26371363e-15 C7.16337585,1.26371363e-15 0,7.16337585 0,16.0000178 C0,24.8365886 7.16337585,32 16.0000178,32 C24.8365886,32 32,24.8366241 32,16.0000178 C32.0000356,7.16337585 24.8366597,0 16.0000178,0 L16.0000178,1.26371363e-15 Z M12.9761089,20.0536179 C12.0114759,20.0536179 11.3076449,19.8973217 10.3952647,19.6365552 L7.76238099,20.9661759 L8.51850049,18.7241395 C6.66759594,17.4208409 5.57263304,15.7785211 5.57263304,13.7712136 C5.57263304,10.2259141 8.90941892,7.5147756 12.9761445,7.5147756 C16.5735545,7.5147756 19.7800106,9.65244852 20.4056223,12.6764997 C20.1449626,12.6242468 19.9102693,12.5982804 19.7017557,12.5982804 C16.1564563,12.5982804 13.4193514,15.257166 13.4193514,18.4636221 C13.4193514,19.010979 13.4975707,19.5062965 13.6279005,20.0277227 C13.4193514,20.0536179 13.1846581,20.0536179 12.9761089,20.0536179 L12.9761089,20.0536179 Z M23.846665,22.6082823 L24.3679489,24.4853311 L22.3867856,23.3644374 C21.630844,23.5207336 20.9009043,23.7553558 20.1449626,23.7553558 C16.6517382,23.7553558 13.8885247,21.3571299 13.8885247,18.3853672 C13.8885247,15.413569 16.6518094,13.0153075 20.1449626,13.0153075 C23.4555687,13.0153075 26.427367,15.413569 26.427367,18.3853672 C26.427367,20.0536179 25.3064733,21.5394992 23.846665,22.6083179 L23.846665,22.6083179 L23.846665,22.6082823 Z M10.5517032,10.6429412 C10.0042751,10.6429412 9.4308095,10.9818202 9.4308095,11.5552858 C9.4308095,12.1028918 10.0042751,12.4678794 10.5517032,12.4678794 C11.0731649,12.4678794 11.4902276,12.1028918 11.4902276,11.5552858 C11.4902276,10.9818202 11.0731649,10.6429412 10.5517032,10.6429412 L10.5517032,10.6429412 Z M22.2043807,15.9870346 C21.8132844,15.9870346 21.4744054,16.3258424 21.4744054,16.7429051 C21.4744054,17.0817841 21.8132844,17.4206275 22.2043807,17.4206275 C22.7256646,17.4206275 23.1167253,17.0817485 23.1167253,16.7429051 C23.1167253,16.325878 22.7256646,15.9870346 22.2043807,15.9870346 L22.2043807,15.9870346 L22.2043807,15.9870346 Z" id="形状"></path>
            </g>
        </g>
    </g>
</svg>