<?xml version="1.0" encoding="UTF-8"?>
<svg width="24px" height="24px" viewBox="0 0 24 24" version="1.1" xmlns="http://www.w3.org/2000/svg" xmlns:xlink="http://www.w3.org/1999/xlink">
    <!-- Generator: Sketch 54.1 (76490) - https://sketchapp.com -->
    <title>形状</title>
    <desc>Created with Sketch.</desc>
    <g id="页面2" stroke="none" stroke-width="1" fill="none" fill-rule="evenodd">
        <g id="代币分配复制-7" transform="translate(-275.000000, -505.000000)" fill="#396EA0" fill-rule="nonzero">
            <g id="编组-19复制" transform="translate(174.000000, 478.000000)">
                <g id="编组-18" transform="translate(95.000000, 20.000000)">
                    <g id="编组-7" transform="translate(6.000000, 0.000000)">
                        <g id="区块" transform="translate(0.000000, 7.000000)">
                            <path d="M1.068,7.9311922 L10.575,12.5212098 C10.8409915,12.6528856 11.008638,12.9244638 11.007,13.2210263 L11.007,23.2252566 C11.0102078,23.4271617 10.9329864,23.6220677 10.7923288,23.7670848 C10.6516711,23.9121018 10.459103,23.9953469 10.257,23.9985015 C10.1463068,23.9985249 10.0370557,23.9734166 9.9375,23.9250732 L0.4305,19.3185717 C0.165578979,19.1867126 -0.00134636731,18.9159415 -3.38813179e-21,18.6202537 L-3.38813179e-21,8.63100878 C-3.38813179e-21,8.20392585 0.336,7.8577639 0.75,7.8577639 C0.8595,7.8577639 0.969,7.88323902 1.068,7.9311922 Z M12.3165,0.0878517073 L22.4295,4.60294244 C22.7022175,4.73050602 22.8777785,5.00276344 22.8812946,5.30357883 C22.8848108,5.60439421 22.7156614,5.88067299 22.446,6.0145639 L12.345,10.8458459 C12.1458404,10.9411776 11.9141596,10.9411776 11.715,10.8458459 L1.53,5.99358439 C1.25974461,5.85945003 1.09045928,5.58234089 1.09461902,5.28089389 C1.09877876,4.9794469 1.27564611,4.7071051 1.5495,4.58046439 L11.7225,0.0848546341 C11.9119476,0.00156506557 12.1279042,0.00265469121 12.3165,0.0878517073 Z M24,8.63250732 L24,18.6187551 C24,18.9184624 23.832,19.1911961 23.568,19.3185717 L14.0805,23.8980995 C13.8994106,23.9847286 13.6908462,23.9940719 13.5027224,23.9239829 C13.3145986,23.853894 13.1630885,23.7103982 13.083,23.5264624 C13.0361564,23.4228758 13.0121149,23.3104509 13.0125,23.1967844 L13.0125,13.2240234 C13.0125,12.9243161 13.1805,12.6515824 13.4445,12.5242068 L22.932,7.93269073 C23.1132779,7.84615125 23.3219986,7.83702316 23.5101527,7.90740609 C23.6983067,7.97778903 23.8496966,8.121624 23.9295,8.30582634 C23.9761341,8.40895279 24.0001708,8.52084432 24,8.63400585 L24,8.63250732 Z" id="形状"></path>
                        </g>
                    </g>
                </g>
            </g>
        </g>
    </g>
</svg>