<?xml version="1.0" encoding="UTF-8"?>
<svg width="24px" height="24px" viewBox="0 0 24 24" version="1.1" xmlns="http://www.w3.org/2000/svg" xmlns:xlink="http://www.w3.org/1999/xlink">
    <!-- Generator: Sketch 54.1 (76490) - https://sketchapp.com -->
    <title>节点数量</title>
    <desc>Created with Sketch.</desc>
    <g id="页面2" stroke="none" stroke-width="1" fill="none" fill-rule="evenodd">
        <g id="代币分配复制-7" transform="translate(-1454.000000, -504.000000)" fill-rule="nonzero">
            <g id="编组-19复制" transform="translate(174.000000, 478.000000)">
                <g id="编组-13" transform="translate(1280.000000, 19.000000)">
                    <g id="节点数量" transform="translate(0.000000, 7.000000)">
                        <path d="M0,12 C8.11624501e-16,18.627417 5.372583,24 12,24 C18.627417,24 24,18.627417 24,12 C24,5.372583 18.627417,4.05812251e-16 12,0 C5.372583,-4.05812251e-16 8.11624501e-16,5.372583 0,12 Z" id="路径" fill="#396EA0"></path>
                        <path d="M11.15,13.5 L8.65000001,15.55 L11.15,13.5 Z M14.3,16.15 L13.25,13.7 L14.3,16.15 Z M16.2,12.95 L13.3,12.65 L16.2,12.95 Z M14.1,8.29999999 L13.15,11.35 L14.1,8.29999999 Z M8.65000001,8.29999999 L12,11.75 L8.65000001,8.29999999 Z M15.8,12.65 L14.75,12.65 C14.75,12.5 14.8,12.4 14.8,12.25 C14.7991641,11.4002085 14.3405698,10.6167765 13.6,10.2 L14,8.85 C14.110913,8.89470144 14.2310071,8.91185773 14.35,8.89999999 C15.1335263,8.87824804 15.7557451,8.23380712 15.75,7.45000001 C15.7607677,7.07089207 15.6183569,6.70343099 15.3549245,6.4305902 C15.091492,6.15774941 14.7292523,6.00253691 14.35,6 C13.5664737,6.02175194 12.9442549,6.66619288 12.95,7.45000001 C12.9507106,8.02585262 13.2810216,8.55046413 13.8,8.80000001 L13.4,10.15 C13.1316118,10.0309283 12.8433237,9.96309574 12.55,9.94999999 C11.9930579,9.95788187 11.4587387,10.1716095 11.05,10.55 L8.95000001,8.4 C9.16771079,8.13029585 9.29069381,7.79648479 9.3,7.45000001 C9.3218815,7.07645192 9.19001809,6.7102091 8.93503917,6.43634285 C8.68006025,6.1624766 8.32415734,6.00482227 7.95,6 C7.57074766,6.00253691 7.20850804,6.15774941 6.94507556,6.4305902 C6.68164307,6.70343099 6.53923235,7.07089207 6.55000001,7.45000001 C6.53923235,7.82910794 6.68164308,8.19656902 6.94507557,8.4694098 C7.20850805,8.74225059 7.57074767,8.89746308 7.95,8.89999999 C8.30677431,8.89595124 8.64778166,8.75236921 8.89999999,8.50000001 L8.80000001,8.55 L10.85,10.7 C10.4706167,11.12801 10.2576772,11.6781038 10.25,12.25 C10.2377862,12.7540666 10.3963747,13.2474531 10.7,13.65 L8.95000001,15.15 C8.59563952,14.6744688 7.97399817,14.4833855 7.41371582,14.6777691 C6.85343348,14.8721528 6.48370791,15.4071797 6.49999999,16 C6.48923234,16.3791079 6.63164307,16.746569 6.89507556,17.0194098 C7.15850805,17.2922506 7.52074767,17.4474631 7.90000001,17.45 C8.6835263,17.428248 9.30574512,16.7838071 9.3,16 C9.30368638,15.7583151 9.25239457,15.5189533 9.15,15.3 L10.95,13.8 C11.369022,14.2723147 11.9686251,14.5448616 12.6,14.55 C12.9281818,14.5611502 13.2541701,14.4925211 13.55,14.35 L14.15,15.8 C13.7156759,16.0670732 13.4507627,16.5401325 13.45,17.05 C13.4392324,17.4291079 13.5816431,17.796569 13.8450756,18.0694098 C14.108508,18.3422506 14.4707477,18.4974631 14.85,18.5 C15.6335263,18.478248 16.2557451,17.8338071 16.25,17.05 C16.2607677,16.6708921 16.1183569,16.303431 15.8549244,16.0305902 C15.591492,15.7577494 15.2292523,15.6025369 14.85,15.6 C14.6788476,15.6045536 14.5097382,15.6383755 14.35,15.7 L13.75,14.25 C14.2704304,13.9395075 14.6476477,13.4365511 14.8,12.85 L15.85,12.85 L15.85,13.1 C15.8392323,13.4791079 15.9816431,13.846569 16.2450756,14.1194098 C16.508508,14.3922506 16.8707477,14.5474631 17.25,14.55 C18.0335263,14.528248 18.6557451,13.8838071 18.65,13.1 C18.6607676,12.7208921 18.5183569,12.353431 18.2549244,12.0805902 C17.991492,11.8077494 17.6292523,11.6525369 17.25,11.65 C16.6067151,11.6524851 16.0309197,12.0495853 15.8,12.65 L15.8,12.65 Z" id="形状" fill="#FFFFFF"></path>
                    </g>
                </g>
            </g>
        </g>
    </g>
</svg>