<?xml version="1.0" encoding="utf-8"?>
<!-- Generator: Adobe Illustrator 22.0.0, SVG Export Plug-In . SVG Version: 6.00 Build 0)  -->
<svg version="1.1" id="图层_1" xmlns="http://www.w3.org/2000/svg" xmlns:xlink="http://www.w3.org/1999/xlink" x="0px" y="0px"
	 viewBox="0 0 950.8 299.6" style="enable-background:new 0 0 950.8 299.6;" xml:space="preserve">
<style type="text/css">
	.st0{fill:none;stroke:#FFFFFF;stroke-width:14.79;stroke-miterlimit:10;}
	.st1{fill:#FFFFFF;stroke:#FFFFFF;stroke-width:0.59;stroke-miterlimit:10;}
	.st2{fill:#FFFFFF;}
	.st3{font-family:'SourceHanSansCN-Medium-GBpc-EUC-H';}
	.st4{font-size:82.68px;}
	.st5{letter-spacing:4;}
</style>
<title>Insight--Chain-logo</title>
<g id="图层_2_1_">
	<circle class="st0" cx="115.3" cy="155.3" r="107.9"/>
	<path class="st1" d="M185.8,190.6l-22.9-25.1c-24.8-80.6-138.9-56-138.9-56c-38.7,77.7,26.2,124.8,26.2,124.8
		c36.1-76.8,111.4-41.7,120.9-37.9c7.4,3,1.9,8.2,0,9.8c-0.1,0.1-0.1,0.2,0,0.3c0,0,0.1,0.1,0.2,0.1
		C193.9,202.2,185.8,190.6,185.8,190.6z M150.1,162.2h-11.9c-0.1,0-0.2-0.1-0.3-0.2l-12.3-22c-0.1-0.2-0.1-0.4,0.1-0.6l1.5-1.3
		c0.2-0.2,0.5-0.2,0.7,0l22.4,23.6c0.1,0.1,0.1,0.3,0,0.4C150.2,162.2,150.2,162.2,150.1,162.2L150.1,162.2z"/>
</g>
<g id="图层_6">
	<path class="st2" d="M259.6,124.6V42.5H275v82.1H259.6z"/>
	<path class="st2" d="M331,124.6V94.4c0-8.8-4.8-15.5-14-15.5c-8.8,0-14.8,7.4-14.8,16.2v29.5h-14.2V66.7h12.8l0.9,7.9
		c5.9-5.8,11.7-8.7,19-8.7c13.6,0,24.5,10.2,24.5,28.4v30.3H331z"/>
	<path class="st2" d="M395.4,82.2c-4.1-3.9-8.8-5.2-14.3-5.2c-6.8,0-10.5,2.1-10.5,5.8s3.4,5.9,10.8,6.3
		c10.9,0.7,24.8,3.2,24.8,18.5c0,10.2-8.3,19-24.9,19c-9.1,0-18.3-1.5-26.7-10.3l7-10.2c4.1,4.6,13.5,8,19.9,8.1
		c5.4,0.1,10.4-2.7,10.4-6.9c0-4-3.3-5.6-11.5-6.1c-10.9-0.8-23.9-4.8-23.9-17.9c0-13.4,13.8-18.1,24.4-18.1c9,0,15.8,1.8,22.5,7.6
		L395.4,82.2z"/>
	<path class="st2" d="M430.8,50.5c0,11.1-16.9,11.1-16.9,0S430.8,39.4,430.8,50.5z M415.2,66.6v58h14.3v-58H415.2z"/>
	<path class="st2" d="M487.8,61l10.6,8l-6.5,8.2c4.5,5,6.1,10.8,6.1,17.1c0,7.2-2.7,17.2-12.2,21.6c9.6,4.8,12,11.7,12,19.1
		c0,15.9-12.2,25.8-29,25.8s-29.3-10.2-29.3-25.8h14.2c0,7.5,6.9,12.4,15.1,12.4s14.7-4.5,14.7-12.4s-7.5-11.6-14.7-11.6
		c-18.1,0-29.3-11-29.3-29.1s13.1-29.3,29.3-29.3c4.6,0,9.3,0.6,13.2,3.3L487.8,61z M453.7,94.3c0,10.1,6.8,16.1,15.1,16.1
		s15-6.1,15-16.1S477,78,468.8,78S453.7,84.2,453.7,94.3L453.7,94.3z"/>
	<path class="st2" d="M522.7,42.5v32.1c5.2-6.7,11.5-8.7,18.1-8.7c16.4,0,23.7,11.1,23.7,28.1v30.5h-14.3V94.3
		c0-10.6-5.5-15-13.1-15c-8.5,0-14.3,7.1-14.3,15.8v29.5h-14.3V42.5L522.7,42.5z"/>
	<path class="st2" d="M596.7,50.5v16.4h16v12.3h-16.1v25c0,5.5,3,8.2,7.5,8.2c2.4-0.1,4.8-0.7,6.9-1.8l4,12.2
		c-3.8,1.6-7.8,2.4-11.8,2.5c-12.5,0.5-20.8-6.7-20.8-21.1v-25h-10.8V66.9h10.8V52L596.7,50.5z"/>
	<path class="st2" d="M720.4,114.3c-8.4,8.3-19.3,12.2-31.2,12.2c-30.5,0-43.4-21-43.5-42.3s13.8-43.3,43.5-43.3
		c11.3,0,22.2,4.5,30.1,12.6l-10.3,10c-5.3-5.1-12.5-7.8-19.8-7.7c-19.8,0-28.4,14.8-28.3,28.5s8,27.8,28.3,27.8
		c7.7-0.1,15.1-3.1,20.6-8.4L720.4,114.3z"/>
	<path class="st2" d="M741.2,42.5v32.1c5.2-6.7,11.5-8.7,18.1-8.7c16.4,0,23.7,11.1,23.7,28.1v30.5h-14.3V94.3
		c0-10.6-5.5-15-13.1-15c-8.4,0-14.3,7.1-14.3,15.8v29.5h-14.3V42.5L741.2,42.5z"/>
	<path class="st2" d="M840.9,66.8h13.7v57.8h-13.5l-0.7-8.4c-3.3,6.8-12.3,10.1-18.8,10.2c-17.1,0.1-29.8-10.4-29.8-30.7
		c0-19.9,13.2-30.4,30.1-30.3c7.7,0,15.1,3.6,18.4,9.4L840.9,66.8z M806.2,95.7c0,11,7.6,17.6,17.1,17.6c22.5,0,22.5-35.1,0-35.1
		C813.8,78.2,806.2,84.6,806.2,95.7z"/>
	<path class="st2" d="M882.3,50.5c0,11.1-16.9,11.1-16.9,0S882.3,39.4,882.3,50.5z M866.7,66.6v58H881v-58H866.7z"/>
	<path class="st2" d="M936.5,124.6V94.4c0-8.8-4.8-15.5-14-15.5c-8.8,0-14.8,7.4-14.8,16.2v29.5h-14.1V66.7h12.8l0.9,7.9
		c5.9-5.8,11.7-8.7,19-8.7c13.6,0,24.5,10.2,24.5,28.4v30.3H936.5z"/>
	<text transform="matrix(1 0 0 1 249 253.05)" class="st2 st3 st4 st5">区块浏览器</text>
</g>
</svg>
